/* XPM */
static char * abra_xpm[] = {
"32 32 10 1",
" 	c #5A8212",
".	c #62921D",
"+	c #7AAA22",
"@	c #4B720E",
"#	c #000000",
"$	c #483818",
"%	c #B89828",
"&	c #F8D860",
"*	c #907860",
"=	c #786038",
"   ...+.....++....@@...+@.@..  .",
" ..+@@..@@@++.. .@@...+++.@.. ..",
"..@@@+@@@..... ..@...  ....@+ ..",
".@@..+@...@...  @..   ....+@+ ..",
"@@ @@@...@.+  +.... .@...+.....@",
".@@@++  @..+ +...  @@++.....++@ ",
"@@ +  .@...+ ..  ..+++.   ...@++",
"@.   +. ...+.. @@  +..+++...+..+",
"..@@ +@.++. . #####.+ ++.. ++...",
".@@ ++@.+.$$$#%&&&%#$$$.. ++....",
"@@ @@..++.$&&%&&&&&%&&$. .+....@",
"   @.. + @$%&&&&&&&&&%$    ..++@",
"   ..  +.@ $&&&&&&&&&$  . +..+@.",
"  .   @@. $%&&&&&&&&&%$ ....@@@.",
" . . @+.@ #%$#&&&&&#$%#..+..@@..",
"@@  @  @.+#%&&#&&&#&&%#@++. @@..",
"@. @  @.++.##&&&&&&&##.@@  .@@..",
"@ +@. ..++$**##&&&##**$@+ ...@.+",
"@@@  ..+..#==$%###%$==#.@....@++",
"@ @. ..+.. ##%%$=$%%##.@+..@@@+.",
".@ . @+..$$&%#%%$%%#%&$$..@@....",
"@... @+..$&%%#&&#&&#%%&$@+@...  ",
"..+@@+..+ $$%%#####%%$$@++.@.   ",
"..+@@+.+ @++##.@@.@##..@+... . .",
".  @.+++ +...++++.@@...+    ....",
"  +@. +. .   .@+.@.@..  . @.++..",
" +@+.+   . +.@+ .@... ++ @@++.. ",
".+@+. +   .+.+ . @.  ++ @..+..  ",
".+..  @. ..++.. @  @@+ @@.++.@ .",
".+. @@.. .+  .    @.. @.@.+.@@..",
"...@ ..  + ... @.....@..@...@.. ",
"..@.... +..... ............  .. "};
