/* XPM */
static char * coin_1_xpm[] = {
"32 32 280 2",
"  	c #5A8212",
". 	c #62921D",
"+ 	c #7AAA22",
"@ 	c #EDD307",
"# 	c #EDD407",
"$ 	c #ECD605",
"% 	c #ECD805",
"& 	c #ECDA05",
"* 	c #ECDF05",
"= 	c #EBE002",
"- 	c #EBE302",
"; 	c #4B720E",
"> 	c #EBBF02",
", 	c #EBC302",
"' 	c #EDCB07",
") 	c #EDCE07",
"! 	c #E3B805",
"~ 	c #E3BC05",
"{ 	c #E2A303",
"] 	c #E3A705",
"^ 	c #E2C202",
"/ 	c #E2C702",
"( 	c #ECE205",
"_ 	c #ECE505",
": 	c #ECE905",
"< 	c #EDEF07",
"[ 	c #D9AF03",
"} 	c #EBBB02",
"| 	c #ECBE05",
"1 	c #E3AB05",
"2 	c #E39805",
"3 	c #E39C05",
"4 	c #E29E03",
"5 	c #E3A205",
"6 	c #E3A405",
"7 	c #E2A402",
"8 	c #E3A805",
"9 	c #E3AD05",
"0 	c #E2CC03",
"a 	c #EBE803",
"b 	c #ECED05",
"c 	c #EBC902",
"d 	c #ECC605",
"e 	c #E39405",
"f 	c #E29002",
"g 	c #E39505",
"h 	c #E29B03",
"i 	c #E29E02",
"j 	c #E2A603",
"k 	c #E2A903",
"l 	c #E2AC03",
"m 	c #E3B005",
"n 	c #E3D005",
"o 	c #ECEF05",
"p 	c #EBD002",
"q 	c #ECD005",
"r 	c #E39A05",
"s 	c #E29302",
"t 	c #E49707",
"u 	c #E29403",
"v 	c #E29603",
"w 	c #E49F07",
"x 	c #E3A005",
"y 	c #E2A503",
"z 	c #E2A802",
"A 	c #E3B305",
"B 	c #EDDC07",
"C 	c #EDD807",
"D 	c #E2A103",
"E 	c #E29802",
"F 	c #E39605",
"G 	c #E29203",
"H 	c #E49907",
"I 	c #E2A003",
"J 	c #E2A102",
"K 	c #E4AB07",
"L 	c #E4AD07",
"M 	c #E3B205",
"N 	c #EDE607",
"O 	c #EBDE03",
"P 	c #E29F02",
"Q 	c #E49A07",
"R 	c #EBED03",
"S 	c #E4A507",
"T 	c #E4A707",
"U 	c #E4AA07",
"V 	c #E2AE03",
"W 	c #EBE603",
"X 	c #E3A305",
"Y 	c #E49D07",
"Z 	c #EBED02",
"` 	c #E4A307",
" .	c #EBEA02",
"..	c #E2B003",
"+.	c #E4B007",
"@.	c #E4A607",
"#.	c #E29A03",
"$.	c #EDF007",
"%.	c #E4B307",
"&.	c #EDEA07",
"*.	c #EBE202",
"=.	c #E2B403",
"-.	c #E4B807",
";.	c #E4B407",
">.	c #E2AA02",
",.	c #944203",
"'.	c #ECE805",
").	c #EBD402",
"!.	c #EBDC03",
"~.	c #E2AB02",
"{.	c #E2B202",
"].	c #E3B505",
"^.	c #EBE102",
"/.	c #ECE405",
"(.	c #EBE203",
"_.	c #EDE407",
":.	c #EBE103",
"<.	c #EBCF03",
"[.	c #E2A703",
"}.	c #E2A702",
"|.	c #E3AE05",
"1.	c #E9CB03",
"2.	c #EBD502",
"3.	c #EBD603",
"4.	c #ECD705",
"5.	c #EBD503",
"6.	c #D5A507",
"7.	c #EDE707",
"8.	c #EBC803",
"9.	c #E3A905",
"0.	c #E2AD03",
"a.	c #EBCB03",
"b.	c #EDCF07",
"c.	c #ECCD05",
"d.	c #EBCA02",
"e.	c #ECCC05",
"f.	c #EBCA03",
"g.	c #ECCB05",
"h.	c #EDCD07",
"i.	c #DB9505",
"j.	c #DB9705",
"k.	c #DC9D07",
"l.	c #EBBF03",
"m.	c #E39B05",
"n.	c #EBBD02",
"o.	c #ECC005",
"p.	c #EBBE03",
"q.	c #ECBF05",
"r.	c #EDC207",
"s.	c #EBBC02",
"t.	c #EBBD03",
"u.	c #954105",
"v.	c #DB9405",
"w.	c #DA9202",
"x.	c #DA9402",
"y.	c #EBDC02",
"z.	c #EBBB03",
"A.	c #ECBC05",
"B.	c #E29303",
"C.	c #974F07",
"D.	c #EBBA02",
"E.	c #EDBF07",
"F.	c #DB9005",
"G.	c #DB9105",
"H.	c #DA9002",
"I.	c #E29103",
"J.	c #E29702",
"K.	c #933D02",
"L.	c #DC9107",
"M.	c #DB8F05",
"N.	c #DB8E03",
"O.	c #DA8D02",
"P.	c #E28F02",
"Q.	c #E29903",
"R.	c #E29D02",
"S.	c #DA8402",
"T.	c #DB8803",
"U.	c #DB8C03",
"V.	c #DA8C02",
"W.	c #ECD405",
"X.	c #E49607",
"Y.	c #E39305",
"Z.	c #E39E05",
"`.	c #DC8B07",
" +	c #DB8603",
".+	c #DB8A05",
"++	c #DB8E05",
"@+	c #ECD105",
"#+	c #DB8805",
"$+	c #DC9007",
"%+	c #EBCC03",
"&+	c #EBCB02",
"*+	c #ECCE05",
"=+	c #EBCD02",
"-+	c #ECCF05",
";+	c #D07A05",
">+	c #DB8905",
",+	c #DA8B02",
"'+	c #EDD207",
")+	c #DB8705",
"!+	c #DB8503",
"~+	c #DB8D05",
"{+	c #EBDD03",
"]+	c #EBDD02",
"^+	c #EBDE02",
"/+	c #ECE005",
"(+	c #DA8902",
"_+	c #DC8E07",
":+	c #DA8602",
"<+	c #DA9D02",
"[+	c #DA8302",
"}+	c #943B03",
"|+	c #EBEE06",
"1+	c #EAEC02",
"2+	c #EAEB02",
"3+	c #ECC505",
"4+	c #ECC905",
"5+	c #E1E403",
"6+	c #E2E504",
"7+	c #E4EA0B",
"8+	c #E2E609",
"9+	c #E1E504",
"0+	c #E0E303",
"a+	c #E1E609",
"b+	c #ECC205",
"c+	c #D4DA06",
"d+	c #D9E110",
"e+	c #D8E110",
"f+	c #D5DC0D",
"g+	c #D4DC0D",
"h+	c #D4D906",
"i+	c #D2D705",
"j+	c #D2D605",
"k+	c #D4DB0D",
"l+	c #DA8F02",
"m+	c #DC9407",
"n+	c #DC9207",
"o+	c #EBBC03",
"p+	c #933602",
"q+	c #CAD714",
"r+	c #C5D010",
"s+	c #DA9902",
"t+	c #DBA205",
"u+	c #DA9F02",
"v+	c #973B02",
"w+	c #C3CE11",
"x+	c #DC9607",
"y+	c #DB9E05",
"z+	c #EBC203",
"A+	c #974A07",
"B+	c #DC9707",
"C+	c #DC9B07",
"D+	c #DB9C05",
"E+	c #DA9E02",
"F+	c #DBA005",
"G+	c #DB9D05",
"H+	c #DB9A05",
"I+	c #DB9403",
"J+	c #DB9103",
"K+	c #DBA305",
"L+	c #DB9C03",
"M+	c #DB9803",
"N+	c #EBD102",
"O+	c #DB8903",
"P+	c #DBA103",
"Q+	c #DCA307",
"R+	c #DCA107",
"S+	c #DBB303",
"T+	c #EBD802",
"U+	c #DB9503",
"V+	c #DB9B03",
"W+	c #DCA507",
"X+	c #DCA607",
"Y+	c #DBBA03",
"Z+	c #DCB907",
"`+	c #EBEA03",
" @	c #EBEB02",
".@	c #DB9603",
"+@	c #EBC402",
"@@	c #EBD903",
"      . . . + . . . . . @ # $ % & * = - . . . + ; . ; . .     . ",
"  . . + ; ; . . ; > , ' ) ! ~ { ] ^ / ( _ : < + + . ; . .   . . ",
". . ; ; ; + ; [ } | 1 2 3 3 4 5 6 7 8 1 9 0 a b . . . ; +   . . ",
". ; ; . . + c d 1 e f g 2 3 h 4 i 6 ] j k l m n b o + ; +   . . ",
"; ;   ; ; p q 3 r s e t u v w 3 x 5 6 y 8 z 9 m A < o . . . . ; ",
". ; ; ; B C D 4 E r F t G H 2 3 o 4 I J 7 K L 9 m M b o + + ;   ",
"; ;   N O j 6 P x 3 r Q G e g R R o x S T U 8 k l V M b o ; + + ",
"; .   W l L 8 { X x 3 Y F e R Z Z R R ` 5 6 U K L 9 m n < . . + ",
". .  . ...+.z 8 T @.x #.r R R Z R $.$.3 ` I T U 8 1 l %.&.b . . ",
". ; *.=.-.;.>.1 K 6 D 4 ,.R Z R $.$.o $.h x S 6 ] j L +.m '.. . ",
"; ).!.~.{.].M +.L 8 J ^.^./.^.(.N /./._.:.:.4 5 { ] K 1 9 _ '.; ",
"  <.[.}.|.].=.;.1.2.2.3.4.4.2.4.4.$ $ C 5.5.$ 5.5.{ y 8 1 6.7.; ",
"  8.4 6 9.0.a.b.c.d.a.c.c.a.c e.e.a.a.e.e.a.a.f.g.f.h.i.j.k.= . ",
"  l.m.4 { ,.n.n.o.p.q.q.p.r.n.q.q.p.n.s.t.| | t.| | u.v.w.x.y.. ",
"z.A.B.m.4 J C.A.D.z.E.E.z.D.A.A.z.E.E.z.A.A.A.A.A.E.F.G.H.w.& . ",
"D.D.I.B.J.4 { K.A.E.A.z.D.D.A.E.E.D.A.z.A.D.D.D.E.L.M.N.O.H.4.. ",
"D.A.I.P.B.Q.R.6 C.E.A.z.D.E.E.z.A.z.z.z.z.z.A.D.S.T.U.M.V.O.W.. ",
"; z.X.P.Y.B.m.Z.C.E.z.A.E.E.z.A.z.z.A.A.D.A.D.D.`. +.+++M.V.@++ ",
"; D.P.I.I.Y.#+$+F.u.a.d.b.a.%+%+%+&+*+*+=+-+-+;+S.#+>+.+++,+'++ ",
"; z.7 )+!+)+)+`.~+u.{+y.* O O ]+O ]+* ^+/+/+/+(+_+#+#+S.:+<+) . ",
". D.z.)+!+[+`.)+#+}+|+1+R R 1+1+R |+|+2+|+2+|+,+~+.+S.S.>+3+4+. ",
"; . A.)+!+[+`.)+)+}+5+6+7+7+8+8+9+8+0+8+0+0+a+V.,+$+:+#+)+b+    ",
". . E.D.[+`.)+)+`.}+c+d+e+f+f+g+h+i+i+g+j+g+k+l+m+n+~+:+| o+    ",
". . + D.w.`.)+`.!+p+q+q+r+u.v.x.s+t+u+p+v+w+w+w.x+F.M.y+z+.   . ",
".     D.A.`.`.`.!+A+u.)+#+$+m+B+C+D+E+u+F+G+H+C+I+J+N.a.. . . . ",
"    + ; A.z.`.)+!+)+!+!+!+#+(+m+v.x.D+E+K+F+L+M+j.I+N+q + + . . ",
"  + ; + . E.z.!+!+)+!+`.)+[+`.O+F.H.j.D+t+P+Q+R+S+T+2.+ + . .   ",
". + ; + .   E.z.I+!+)+`.)+`.!+#+O+V.v.U+V+W+X+Y+*./+. + . .     ",
". + . .     ; . z.A.i.`.`.)+)+!+S.O+N.H.x.Z+`+ @; . + + . ;   . ",
". + .   ; ; . .   . E.z.z.A.I+I+I+.@+@-+W.@@; . ; . + . ; ; . . ",
". . . ;   . .     +   . . A.z.D.A.A.q.. . ; . . ; . . . ; . .   ",
". . ; . . . .   + . . . . .   . . . . . . . . . . . .     . .   "};
