/* XPM */
static char * Magcargo_front_2_xpm[] = {
"32 32 15 1",
" 	c #5A8212",
".	c #62921D",
"+	c #7AAA22",
"@	c #4B720E",
"#	c #480000",
"$	c #E05048",
"%	c #000000",
"&	c #283038",
"*	c #687088",
"=	c #B03830",
"-	c #F8D058",
";	c #485060",
">	c #F89800",
",	c #781810",
"'	c #E07818",
"   ...+.....++....@@...+@##..  .",
" ..+@@..@@@++.. .@@...++#$$.. ..",
"..@@@+@@@..... ..@...  .#$$@+ ..",
".@@..+@...@.%%%%%..   ##$##@+ ..",
"@@ @@@...@%&*****&%%##==-$$#...@",
".@@@++  @.%&*****&%%##==-$$#++@ ",
"@@ +  .@%%**;;;;;***%=$$->>#.@++",
"@.   +. &&;;*****;;;&#$$>,,#+..+",
"..@@ +@&;;%%*****%%%;%$$###++...",
".@@ ++@&;;%%*****%%%;%$$###+....",
"@@ @@..&%%$$%%*%%$$$%&## .+....@",
"   @.. #''-'##,##'--'#.    ..++@",
"   ..  #''-'##,##'--'#  . +..+@.",
"  .   @%----==,==----%. ....@@@.",
" . . @+%--%-==$==-%%-%...+..@@..",
"@@  @##=''-'$$$$$'--'=##++. @@..",
"@. @ ##=''-'$$$$$'--'=##@  .@@..",
"@ +@.%%$$$$$$$$$$$$$$$%%+ ...@.+",
"@@@  %%$$$=$$$$$$$==$$%%@....@++",
"@ @. ..%%%=$$$$$$$==%%.@+..@@@+.",
".@ . @+%%%=$$$$$$$==%%.@..@@....",
"@... ##,%%,$$$$$$$,,%,##@+@...  ",
"..+@@##,##=%==$==%==#,##++.@.   ",
"..+@@##,##=%==$==%==#,##+... . .",
".  @%==%$$=#%%%%%#$$=%$$%   ....",
"  +@%==%===#=====#===%$$% @.++..",
" +@+%$$=%%%=======%%%===%@@++.. ",
".+@+%$$=%%%=======%%%===%..+..  ",
".+.. ###====$$$======###@.++.@ .",
".+. @@..%%%#$$$==#%%% @.@.+.@@..",
"...@ .. %%%#$$$==#%%%@..@...@.. ",
"..@.... +...%%%%%..........  .. "};
