/* XPM */
static char * Bug_trainer_right_xpm[] = {
"32 32 71 1",
" 	c #5A8212",
".	c #5E8324",
"+	c #608329",
"@	c #6B933A",
"#	c #67932F",
"$	c #62921D",
"%	c #7AAA22",
"&	c #66922B",
"*	c #705850",
"=	c #6F943D",
"-	c #7DAA28",
";	c #4B720E",
">	c #517322",
",	c #669223",
"'	c #527427",
")	c #D8A078",
"!	c #F8C898",
"~	c #83AA3F",
"{	c #7DAA2E",
"]	c #587534",
"^	c #517318",
"/	c #5E773F",
"(	c #7DAA32",
"_	c #303038",
":	c #709444",
"<	c #B08878",
"[	c #5D7637",
"}	c #667949",
"|	c #262626",
"1	c #78A058",
"2	c #000000",
"3	c #504040",
"4	c #89AB55",
"5	c #6D8647",
"6	c #627846",
"7	c #648435",
"8	c #83AA46",
"9	c #8EAB5C",
"0	c #688539",
"a	c #784040",
"b	c #A0A8B0",
"c	c #C87038",
"d	c #713C3C",
"e	c #C46E36",
"f	c #C36D36",
"g	c #79413F",
"h	c #C76F37",
"i	c #C66F37",
"j	c #789554",
"k	c #C76F38",
"l	c #FFFFFF",
"m	c #76954D",
"n	c #86AA4C",
"o	c #739446",
"p	c #787F64",
"q	c #404850",
"r	c #587858",
"s	c #73944A",
"t	c #698540",
"u	c #585858",
"v	c #8B9971",
"w	c #7B9656",
"x	c #668539",
"y	c #5E831B",
"z	c #70874A",
"A	c #286870",
"B	c #80AA3C",
"C	c #849766",
"D	c #728751",
"E	c #818B66",
"F	c #7C8A5F",
" .+@#$%&$#@**********=$-;$;$$  $",
" &$%>;,@>'*)!!!!!!!!)*~{%#>&&.$$",
"$$]^/%>/'@*)!!!!!!!!)*.$$&&>%.&$",
"$^>==(>___)!!!)!!!!!!)___:%](.#$",
";'+^___<**)!))!))!!!!)**<___=#$;",
"$[>'___<**)!))!))!!!!)**<___~~; ",
";}__<<<*))))!!)!!!!!))))*<<<__{%",
";|<<<<<*11))))))))))))11*<<<<<2%",
"$2<<<<<31111))))))))11113<<<<<2$",
"$2<<<<<31111))))))))11113<<<<<2$",
";2<<<<<<3311111111111133<<<<<<2;",
" .22<<<<<<)1111111111)<<<<<<224;",
" .22<<<<<<)1111111111)<<<<<<22>$",
" +$5222<))<)<<))))))))))<2226;'$",
" &.$7;8222)<))))))))))2229$=>;&$",
";> .; 0aaaa222222222b3cc28$ ;'$$",
";,.>0.}aaaadecfggchib3cc20 $>;$$",
";.%;$ j2aaaakccaacccl2cca0$$$;$%",
";;;7+m&-22aacccccc))))))c#$$$;{%",
";.>& &#n=o22aacccccc))aa(&$;;;{$",
"$].& ;%#$.22aacccccc))aa&$;;$$$$",
";&$& ^{#$ pqbbrrrcaaaas'>{;$&$  ",
"$#%[;{$#{tu2rrb222bbqv:;%%$;$.. ",
"$#->;%$( ]22rrb222bbqvw>%$$$ $.$",
"$+ '$%%-x213bb2)))22bq&%    $&&$",
"  %>$y%&z213bb2)))22bq+ $ ;$%%&$",
" %;%$- .02r3AA2ccccc2qB%.;;%%$@ ",
"$%;%$+(.t2r3AA2ccccc2q{+;$$%$$0 ",
"$%&$  >$.C22AAAaaccc_2t>'$%%$;D$",
"$B$ ';$@7@(E22cccAAA2F;#;$%$;;,$",
"$:$;7&$.+- w22cccAAA2}$='$$$;$& ",
"$s;$#=# 8&&$$=222222$$$&s##tt$# "};
