/* XPM */
static char * Bug_trainer_back_xpm[] = {
"32 32 18 1",
" 	c #5A8212",
".	c #62921D",
"+	c #7AAA22",
"@	c #705850",
"#	c #4B720E",
"$	c #D8A078",
"%	c #F8C898",
"&	c #303038",
"*	c #B08878",
"=	c #000000",
"-	c #78A058",
";	c #504040",
">	c #784040",
",	c #C87038",
"'	c #587858",
")	c #A0A8B0",
"!	c #404850",
"~	c #286870",
"   ...+....@@@@@@@@@@..+#.#..  .",
" ..+##..##@$%%%%%%%%$@+++.#.. ..",
"..###+###.@$%%%%%%%%$@ ....#+ ..",
".##..+#&&&$%%%%%%$%%%$&&&.+#+ ..",
"## #&&&*@@$%%%%$$%$$%$@@*&&&...#",
".###&&&*@@$%%%%$$%$$%$@@*&&&++# ",
"##&&***@$$$$%%%%%$%%$$$$@***&&++",
"#=*****@--$$$$$$$$$$$$--@*****=+",
".=*****;----$$$$$$$$----;*****=.",
".=*****;----$$$$$$$$----;*****=.",
"#=******;;------------;;******=#",
"  ==******$----------$******==+#",
"  ==******$----------$******==#.",
"  . ===*$$$$$$$$$$**$*$$*===###.",
" . .>,,===$$$$$$$$$$*$===,,>##..",
"##  #===>>============>>=== ##..",
"#. # ===>>============>>===.##..",
"# +#. .=&&>>>>>>>>>>>>&&= ...#.+",
"###  ..+&&&&>>>>>>>>&&&&#....#++",
"# #. ..+==,;&&&&&&&&;,==+..###+.",
".# . #+.==,;&&&&&&&&;,==..##....",
"#... #+=$$,=''))))''=,$$=+#...  ",
"..+##>>,$$,)''))))''),$$,>>#.   ",
"..+##>>,$$,)''))))''),$$,>>. . .",
".  #=$$,@@=);;;;;;;;)=@@,$$=....",
"  +#=$$$===!--------!===$$$=++..",
" +#+.=====~!''''''''!~=====++.. ",
".+#+. +  =~!''''''''!~==#..+..  ",
".+..  #. =~!''''''''!~=##.++.# .",
".+. ##.. =,,========,,=.#.+.##..",
"...# ..  =,,=. #...=,,=.#...#.. ",
"..#.... +.==.. .....==.....  .. "};
