/* XPM */
static char * Wall_xpm[] = {
"32 32 70 1",
" 	c #868579",
".	c #88877B",
"+	c #6D6558",
"@	c #6C6355",
"#	c #6C685E",
"$	c #6D695F",
"%	c #6D685F",
"&	c #6C6254",
"*	c #746F64",
"=	c #6C675E",
"-	c #746F63",
";	c #6B665D",
">	c #6B675D",
",	c #6A655C",
"'	c #5F574C",
")	c #6B655D",
"!	c #6A645C",
"~	c #69645B",
"{	c #68635A",
"]	c #69635B",
"^	c #676259",
"/	c #68625A",
"(	c #5F564B",
"_	c #57473A",
":	c #676159",
"<	c #5C5247",
"[	c #4F2913",
"}	c #5D5247",
"|	c #5D5248",
"1	c #4F311E",
"2	c #5C5147",
"3	c #4F3625",
"4	c #584132",
"5	c #5F5349",
"6	c #5E5146",
"7	c #5D4D41",
"8	c #563D2C",
"9	c #553726",
"0	c #583F30",
"a	c #6C675F",
"b	c #69645C",
"c	c #6C685F",
"d	c #5C4B40",
"e	c #5A4538",
"f	c #62574E",
"g	c #61554C",
"h	c #5F5146",
"i	c #665F58",
"j	c #5C493D",
"k	c #5E4E43",
"l	c #61564D",
"m	c #5E4F45",
"n	c #543523",
"o	c #5C4D41",
"p	c #5C4B3E",
"q	c #5B493C",
"r	c #5D5044",
"s	c #5D4E43",
"t	c #5D4E42",
"u	c #5D4D42",
"v	c #5A4637",
"w	c #594233",
"x	c #5A4638",
"y	c #573D2D",
"z	c #5F5348",
"A	c #5A4A3D",
"B	c #5E5145",
"C	c #767469",
"D	c #86847B",
"E	c #666057",
"         .               .      ",
"                        +@      ",
"##$%%%%$$%%%%%%###$%%%%$&*%%%%%#",
"==%%%%###=%#=#====%%%%##%-%#=#==",
";;=====>>>;;;;;;;;=====>>>;;;;;;",
",,,,,',,))),!!!!,,,,,,,,))),!!!!",
"~~~~~{%,~~]]]~~~~~~~~~~~~~]]]~~~",
"{{^^^//((_/////{{{^^^///{//////{",
"::::::<[[[[:::::::::::::::::::::",
"}|<<<<<<<<<<<12}}|<<<<<<<<<<<12}",
"}|<<<<<<<<<<<3<}}|<<<<<<<<<<<3<}",
"}|<<<<<<<<<<<3<}}|<<<<<<<<<<<3<}",
":::::::::::::4:::::::::::::::4::",
"55667765555489055566776555548905",
"::::::::::::::::::::::::::::::::",
"::::::::::::::::::::::::::::::::",
"::::::::::::::::::::::::::::::::",
"::::::::::::::::::::::::::::::::",
"aabbbbbbbbccadaaaabbbbbefghhadaa",
"iiiiiiiiiiiiijiiiiiiiiibkliiijii",
"iiiiiiiiiiiiimiiiiiiiiiibbiiimii",
"iiiiiiiiiiiiiniiiiiiiiiiiiiiinii",
"oo5pqprrsttunnnooo5vwwxrsttunnno",
"iiiiiiiiiiiiiiiiiiiiipiiiiiiiiii",
"iiiiiyiiiiiiiiiiiiiiiiiiiiiiiiii",
"iiiiizAyaiiiiiiiiiiiiiiiiiiiiiii",
"iiiii6BAiiiiiiiiiiiiiiiiiiiiiiii",
"CCCCCCCCCCCCCCCCCCCCCCCCCCCCCCCC",
"CCCCCCCCCCCCCCCCCCCCCCCCCCCCCCCC",
"DDDDDDDDDDDDDDDDDDDDDDDDDDDDDDDD",
"EEEEEEEEEEEEEEEEEEEEEEEEEEEEEEEE",
"[[[[[[[[[[[[[[[[[[[[[[[[[[[[[[[["};
