/* XPM */
static char * coin_5_xpm[] = {
"32 32 241 2",
"  	c #5A8212",
". 	c #62921D",
"+ 	c #7AAA22",
"@ 	c #82AC21",
"# 	c #EDE007",
"$ 	c #FFE400",
"% 	c #FFCC00",
"& 	c #9B830A",
"* 	c #4B720E",
"= 	c #80AC21",
"- 	c #EDE607",
"; 	c #E3C605",
"> 	c #F9D200",
", 	c #FFD800",
"' 	c #FAC702",
") 	c #ECEB05",
"! 	c #E3AF05",
"~ 	c #E3A505",
"{ 	c #F6B000",
"] 	c #F6B500",
"^ 	c #FFCD00",
"/ 	c #CCA611",
"( 	c #7C910C",
"_ 	c #E3C305",
": 	c #E3AA05",
"< 	c #F6B400",
"[ 	c #F6AD00",
"} 	c #F6A700",
"| 	c #FBC700",
"1 	c #5D8212",
"2 	c #ECEE05",
"3 	c #E4B107",
"4 	c #E2A603",
"5 	c #F6B200",
"6 	c #F6AC00",
"7 	c #F6A400",
"8 	c #F6A900",
"9 	c #FFDC00",
"0 	c #F3C002",
"a 	c #E5D005",
"b 	c #E4AE07",
"c 	c #F5B600",
"d 	c #F7B500",
"e 	c #F6A300",
"f 	c #FEE200",
"g 	c #8EAA19",
"h 	c #E3B105",
"i 	c #E4AD07",
"j 	c #F5B400",
"k 	c #FDF000",
"l 	c #F6A600",
"m 	c #F6AE00",
"n 	c #F7C400",
"o 	c #9E9718",
"p 	c #E0E409",
"q 	c #E3AE05",
"r 	c #E4AB07",
"s 	c #F5B200",
"t 	c #FEFE00",
"u 	c #E9AE00",
"v 	c #F6BA00",
"w 	c #FEDF00",
"x 	c #EBE707",
"y 	c #E3AB05",
"z 	c #EEAF01",
"A 	c #F5AF00",
"B 	c #F8F200",
"C 	c #F6BD00",
"D 	c #FFF900",
"E 	c #E5CB05",
"F 	c #E2A803",
"G 	c #F9D500",
"H 	c #FFFE00",
"I 	c #F6AF00",
"J 	c #F6B700",
"K 	c #F6C000",
"L 	c #FEF700",
"M 	c #FCCA00",
"N 	c #E3B205",
"O 	c #E2A502",
"P 	c #FEF900",
"Q 	c #F5B100",
"R 	c #F6C300",
"S 	c #FBE000",
"T 	c #F9C700",
"U 	c #82931B",
"V 	c #5E8312",
"W 	c #E2A802",
"X 	c #E2A202",
"Y 	c #FEEB00",
"Z 	c #FEED00",
"` 	c #FFEE00",
" .	c #F6C500",
"..	c #F8C900",
"+.	c #AC910D",
"@.	c #819D1B",
"#.	c #DB9902",
"$.	c #EBD003",
"%.	c #FEE100",
"&.	c #FFE200",
"*.	c #F6B800",
"=.	c #F3C300",
"-.	c #D8AA07",
";.	c #92A519",
">.	c #DB9403",
",.	c #ECC605",
"'.	c #FED600",
").	c #FFD700",
"!.	c #C37D00",
"~.	c #F0C000",
"{.	c #999A0A",
"].	c #DB9303",
"^.	c #E4B307",
"/.	c #FECC00",
"(.	c #DA9500",
"_.	c #F6AB00",
":.	c #EDBE00",
"<.	c #A8AD16",
"[.	c #DC9607",
"}.	c #D49004",
"|.	c #F6A500",
"1.	c #EBBC00",
"2.	c #B0B71A",
"3.	c #DC9507",
"4.	c #DF8F04",
"5.	c #F4BE00",
"6.	c #E8BA00",
"7.	c #ABB41B",
"8.	c #DC9307",
"9.	c #DB8803",
"0.	c #C47900",
"a.	c #F5AA00",
"b.	c #F5A300",
"c.	c #E4B700",
"d.	c #EABB00",
"e.	c #969F18",
"f.	c #DB8F05",
"g.	c #DB8603",
"h.	c #FECF00",
"i.	c #FECE00",
"j.	c #FFCE00",
"k.	c #DB8F00",
"l.	c #F5A500",
"m.	c #E1B400",
"n.	c #E7B900",
"o.	c #F9C800",
"p.	c #82971A",
"q.	c #DB8D05",
"r.	c #DB8503",
"s.	c #FEE000",
"t.	c #FFE000",
"u.	c #FFDF00",
"v.	c #EF9F00",
"w.	c #EF9800",
"x.	c #DEB200",
"y.	c #EABC00",
"z.	c #D3A404",
"A.	c #69921C",
"B.	c #DB8805",
"C.	c #FEF300",
"D.	c #FEF200",
"E.	c #FFF200",
"F.	c #FFF100",
"G.	c #EF9B00",
"H.	c #EE9500",
"I.	c #F09F00",
"J.	c #DBB000",
"K.	c #A08409",
"L.	c #DB8703",
"M.	c #DA8502",
"N.	c #F8F901",
"O.	c #F9FB03",
"P.	c #FAFB02",
"Q.	c #FBFB02",
"R.	c #EF9700",
"S.	c #F4B100",
"T.	c #D8AD00",
"U.	c #70750C",
"V.	c #DD9203",
"W.	c #DB8B03",
"X.	c #ECF10A",
"Y.	c #EBEF07",
"Z.	c #ECEF07",
"`.	c #EDEF07",
" +	c #EF9500",
".+	c #FAC400",
"++	c #D5AB00",
"@+	c #E3AB02",
"#+	c #DC9207",
"$+	c #DCE510",
"%+	c #DBE20C",
"&+	c #CDC60A",
"*+	c #DEE30C",
"=+	c #DCDE04",
"-+	c #D4AA00",
";+	c #EDC607",
">+	c #DB9005",
",+	c #C4D011",
"'+	c #A45F05",
")+	c #EEB000",
"!+	c #C87501",
"~+	c #D0DC14",
"{+	c #ECBD00",
"]+	c #9D9C17",
"^+	c #DB9103",
"/+	c #B26503",
"(+	c #EEB200",
"_+	c #EEAB00",
":+	c #EE9F00",
"<+	c #DD8200",
"[+	c #EE9900",
"}+	c #D5AA00",
"|+	c #88810D",
"1+	c #DCA203",
"2+	c #DCA007",
"3+	c #EEB300",
"4+	c #EEA600",
"5+	c #EE9B00",
"6+	c #F9C100",
"7+	c #EBD905",
"8+	c #DCA107",
"9+	c #DFA104",
"0+	c #EEA200",
"a+	c #EE9600",
"b+	c #A0AB17",
"c+	c #DCAB07",
"d+	c #DC9E07",
"e+	c #EE9E00",
"f+	c #F2AE00",
"g+	c #D6AC00",
"h+	c #7CA821",
"i+	c #EBEC03",
"j+	c #DB8A05",
"k+	c #EE9700",
"l+	c #B5930A",
"m+	c #8AA21A",
"n+	c #EBD005",
"o+	c #EEA300",
"p+	c #A19E17",
"q+	c #ECBC05",
"r+	c #9B8A11",
"      . . . + . . . . . @ # $ % % % & * . . . + * . * . .     . ",
"  . . + * * . . * * * = - ; > , % % % ' . . + + + . * . .   . . ",
". . * * * + * * * . . ) ! ~ { ] ^ % % % /     . . . . * +   . . ",
". * * . . + * . . . ( _ : < [ } | % % % % 1 . . . . + * +   . . ",
"* *   * * * . . . * 2 3 4 5 6 7 8 9 % % % 0 . . . + . . . . . * ",
". * * * + +     * . a b c d 8 e 6 f % % % % + . . . . . + + *   ",
"* *   +     . * . g h i j k } l m n % % % % o       . . . * + + ",
"* .       + .   . p q r s t u 8 5 v w % % % % + + . . . + . . + ",
". . * *   + * . + x y z A t B 6 ] C D % % % % + . .   + + . . . ",
". * *   + + * . + E F j G t H I J K L M % % % . .   + + . . . . ",
"* *   * * . . + + N O s P P D Q v R S T % % % U   . + . . . . * ",
"      * . .   + V W X Y Z Z ` ` C  ... .M % % +.      . . + + * ",
"      . .     + @.#.$.%.%.%.&.&.&.R *.=.T % % -..   + . . + * . ",
"    .       * * ;.>.,.'.'.'.).).).!.I ~. .M % % . . . . * * * . ",
"  .   .   * + . {.].^./././.% % % (._.:.=.T % % . + . . * * . . ",
"* *     *     * <.[.}./././.% % % j |.1.~. .M % + + .   * * . . ",
"* .   *     * . 2.3.4./././.% % 5.A e 6.:.=.T % *     . * * . . ",
"*   + * .   . . 7.8.9./././.% % 0.a.b.c.d.~. .M +   . . . * . + ",
"* * *     . . + e.f.g.h.h.i.j.j.k.l.b.m.n.:.=.o.* . . . . * + + ",
"*   * .   . . + p.q.r.%.s.s.t.u.v.w.l.x.c.y.~.z.+ . . * * * + . ",
". *   .   * + . A.9.B.C.C.D.E.F.G.H.I.J.m.n.:.K.. . * * . . . . ",
"* . . .   * + . . L.M.N.O.P.Q.Q.R.H.S.T.x.c.y.U.* + * . . .     ",
". . + * * + . . + V.W.X.X.Y.Z.`. +H..+++J.m.n.* + + . * .       ",
". . + * * + . +   @+#+$+%+&+*+=+ +H./.-+T.x.c.* + . . .   .   . ",
".     * . + + +   ;+>+,+'+)+!+~+H.H.{+-+++J.m.+         . . . . ",
"    + * .   + .   ]+^+/+(+_+:+<+H.[+}+-+-+T.|+  .   * . + + . . ",
"  + * + . +       . 1+2+3+4+5+H.H.6+-+-+-++++ +   * * + + . .   ",
". + * + .   +       7+8+9+0+a+H.H.M -+-+-+-++   * . . + . .     ",
". + . .     * .   . b+c+d+e+H.H.f+g+-+-+-+h+  * * . + + . *   . ",
". + .   * * . .   . + i+>.j+H.k+/.-+-+-+l+  * . * . + . * * . . ",
". . . *   . .     +   m+n+>+o+/.g+-+-+-+. * . . * . . . * . .   ",
". . * . . . .   + . . . p+q+/.J.-+-+r+. . . . . . . .     . .   "};
