/* XPM */
static char * coin_3_xpm[] = {
"32 32 182 2",
"  	c #5A8212",
". 	c #62921D",
"+ 	c #7AAA22",
"@ 	c #4B720E",
"# 	c #FFCC00",
"$ 	c #FFD800",
"% 	c #FFE100",
"& 	c #ECD902",
"* 	c #EDE605",
"= 	c #FFD500",
"- 	c #F6B000",
"; 	c #E3A805",
"> 	c #E3CB05",
", 	c #EDEE05",
"' 	c #FFD200",
") 	c #F6A600",
"! 	c #F6AD00",
"~ 	c #F6B500",
"{ 	c #E3AA03",
"] 	c #E3CF03",
"^ 	c #F6C000",
"/ 	c #F6A400",
"( 	c #F6AC00",
"_ 	c #F6B200",
": 	c #E3A703",
"< 	c #E3B005",
"[ 	c #ECEE02",
"} 	c #FFE600",
"| 	c #F6A800",
"1 	c #F6AF00",
"2 	c #F5B600",
"3 	c #E3AA02",
"4 	c #EEEF07",
"5 	c #FFEB00",
"6 	c #F6A700",
"7 	c #FFFE00",
"8 	c #F5B500",
"9 	c #E5AE07",
"0 	c #E5B407",
"a 	c #FECB00",
"b 	c #F6BC00",
"c 	c #F6B300",
"d 	c #F6AB00",
"e 	c #F6A300",
"f 	c #FEFE00",
"g 	c #F5B200",
"h 	c #E3AF05",
"i 	c #EEF107",
"j 	c #FBC900",
"k 	c #F6BE00",
"l 	c #F6B600",
"m 	c #F6EA00",
"n 	c #F5AF00",
"o 	c #E3AC03",
"p 	c #FFF200",
"q 	c #F6C200",
"r 	c #F6B900",
"s 	c #FBE600",
"t 	c #E3AB05",
"u 	c #EEEB07",
"v 	c #FFEC00",
"w 	c #F6C500",
"x 	c #F6B400",
"y 	c #FFF900",
"z 	c #FEF900",
"A 	c #FEF800",
"B 	c #E3A603",
"C 	c #E3AD03",
"D 	c #F8C600",
"E 	c #FFE400",
"F 	c #F6C400",
"G 	c #F6BF00",
"H 	c #FFED00",
"I 	c #FEEC00",
"J 	c #FEEB00",
"K 	c #E3A503",
"L 	c #E3AD05",
"M 	c #F5C400",
"N 	c #FFDE00",
"O 	c #FFE000",
"P 	c #FEE000",
"Q 	c #FEDF00",
"R 	c #ECCF03",
"S 	c #DC9903",
"T 	c #FECC00",
"U 	c #F2C100",
"V 	c #FFD600",
"W 	c #FFD400",
"X 	c #FED400",
"Y 	c #FED300",
"Z 	c #EDC405",
"` 	c #DC9705",
" .	c #EEBF00",
"..	c #F6BA00",
"+.	c #EDBC05",
"@.	c #DC9505",
"#.	c #F8C700",
"$.	c #EBBC00",
"%.	c #F6B700",
"&.	c #F5AE00",
"*.	c #DB8B02",
"=.	c #DB9002",
"-.	c #EFBF00",
";.	c #E8BA00",
">.	c #F5A900",
",.	c #AB4600",
"'.	c #DC8B03",
").	c #DC9105",
"!.	c #F2C200",
"~.	c #E5B700",
"{.	c #F5B700",
"].	c #F5A400",
"^.	c #DC8A05",
"/.	c #DB8C02",
"(.	c #E2B500",
"_.	c #F5A300",
":.	c #EF9F00",
"<.	c #FED700",
"[.	c #FED800",
"}.	c #DC8805",
"|.	c #DC8F05",
"1.	c #EBBD00",
"2.	c #DFB200",
"3.	c #EE9500",
"4.	c #EF9A00",
"5.	c #FFE800",
"6.	c #FFE900",
"7.	c #FEE900",
"8.	c #FEEA00",
"9.	c #DC8705",
"0.	c #DC8B05",
"a.	c #DBB000",
"b.	c #EF9500",
"c.	c #FFFC00",
"d.	c #FEFD00",
"e.	c #DB8402",
"f.	c #ECBD00",
"g.	c #E5B800",
"h.	c #D8AD00",
"i.	c #F1F202",
"j.	c #F2F305",
"k.	c #F0F102",
"l.	c #F0F305",
"m.	c #EFF102",
"n.	c #DB8602",
"o.	c #DC9A05",
"p.	c #DCB000",
"q.	c #D5AB00",
"r.	c #D4AA00",
"s.	c #E3E505",
"t.	c #E1E304",
"u.	c #DFE204",
"v.	c #E0E60B",
"w.	c #DEE104",
"x.	c #DC8E05",
"y.	c #DFB300",
"z.	c #CFD306",
"A.	c #D1D90F",
"B.	c #EEB000",
"C.	c #CCD106",
"D.	c #C5CB06",
"E.	c #EDC205",
"F.	c #EEA600",
"G.	c #AA3900",
"H.	c #EE9E00",
"I.	c #EEAB00",
"J.	c #EEB200",
"K.	c #964105",
"L.	c #DC9305",
"M.	c #D8AE00",
"N.	c #EE9A00",
"O.	c #EEB400",
"P.	c #DC9C05",
"Q.	c #EEA200",
"R.	c #DCA005",
"S.	c #ECD803",
"T.	c #DCA103",
"U.	c #78A821",
"V.	c #DC8803",
"W.	c #DB9302",
"X.	c #ECED02",
"Y.	c #EDD105",
"      . . . + . . . . . + + . . . . @ @ . . . + @ . @ . .     . ",
"  . . + @ @ . . @ @ @ + + # # # $ % & * . . + + + . @ . .   . . ",
". . @ @ @ + @ @ @ . . . # # # # = - ; > ,     . . . . @ +   . . ",
". @ @ . . + @ . . . @ # # # # ' ) ! ~ { ]   . . . . + @ +   . . ",
"@ @   @ @ @ . . . @ . # # # # ^ / ( _ : < [ . . . + . . . . . @ ",
". @ @ @ + +     @ . # # # # } ! / | 1 2 3 4 + . . . . . + + @   ",
"@ @   +     . @ . . # # # # 5 - 6 ) 7 8 9 0 .       . . . @ + + ",
"@ .       + .   . . # # # a b c d e f g ; h i + + . . . + . . + ",
". . @ @   + @ . + # # # # j k l ! m f n 2 o 4 + . .   + + . . . ",
". @ @   + + @ . + # # # a p q r - 7 f s 8 t u . .   + + . . . . ",
"@ @   @ @ . . + + # # # j v w b x y z A g B C .   . + . . . . @ ",
"      @ . .   +   # # a D E F G H v I I J K L         . . + + @ ",
"      . .     + . # # j M N k O O O P Q Q R S   .   + . . + @ . ",
"    .       @ @ . # T D U V r = = W X X Y Z `   . . . . @ @ @ . ",
"  .   .   @ + . @ # j M  ...x # # # T T T +.@.. . + . . @ @ . . ",
"@ @     @     @ . T #.U $.%.&.# # # T T T *.=.@ + + .   @ @ . . ",
"@ .   @     @ . + j M -.;.%.>.,.# # T T T '.).@ @     . @ @ . . ",
"@   + @ .   . . + #.!.$.~.{.].x # # T T T ^./.@ +   . . . @ . + ",
"@ @ @     . . + . M -.;.(.T _.:.V V <.<.[.}.|.. @ . . . . @ + + ",
"@   @ .   . . + . !.1.~.2.T 3.4.5.6.7.8.8.9.0.@ + . . @ @ @ + . ",
". @   .   @ + . . -.;.(.a.T 3.b.c.c.d.d.f e.^.@ . . @ @ . . . . ",
"@ . . .   @ + . . f.g.2.h.T 3.b.i.j.k.l.m.n.o.@ @ + @ . . .     ",
". . + @ @ + . . + ;.(.p.q.r.3.b.s.t.u.v.w.x.+.@ + + . @ .       ",
". . + @ @ + . +   @ y.h.r.r.3.b.z.A.B.C.D.|.E.@ + . . .   .   . ",
".     @ . + + +   + p.q.r.r.F.3.G.H.I.J.K.L.. +         . . . . ",
"    + @ .   + .   . M.r.r.r.T 3.3.N.F.O.P.@.    .   @ . + + . . ",
"  + @ + . +       .   r.r.r.r.3.3.3.Q.R.R.S.+ +   @ @ + + . .   ",
". + @ + .   +       . r.r.r.r.T 3.3.H.S T.U.+   @ . . + . .     ",
". + . .     @ .   . . + r.r.r.T 3.3.V.W.X.+   @ @ . + + . @   . ",
". + .   @ @ . .   . +   r.r.r.q.T F.W.Y..   @ . @ . + . @ @ . . ",
". . . @   . .     +   . . . r.r.r.T +.. . @ . . @ . . . @ . .   ",
". . @ . . . .   + . . . . .   . . . . . . . . . . . .     . .   "};
