/* XPM */
static char * coin_4_xpm[] = {
"32 32 26 1",
" 	c #5A8212",
".	c #62921D",
"+	c #7AAA22",
"@	c #FDCB00",
"#	c #4B720E",
"$	c #FAB400",
"%	c #FCC300",
"&	c #FBCA00",
"*	c #F7C600",
"=	c #F2C200",
"-	c #F2C300",
";	c #EEBF00",
">	c #E9BB00",
",	c #EABB00",
"'	c #E4B700",
")	c #E5B700",
"!	c #E5B800",
"~	c #E0B300",
"{	c #E0B400",
"]	c #E1B400",
"^	c #DBB000",
"/	c #DCB000",
"(	c #DCB100",
"_	c #D7AC00",
":	c #C79000",
"<	c #D4AA00",
"   ...+.....++@@@@##...+#.#..  .",
" ..+##..###++.@@@@#...+++.#.. ..",
"..###+###.....@@@@...  ....#+ ..",
".##..+#...#...@@@@$   ....+#+ ..",
"## ###...#.+  @@@@% .#...+.....#",
".###++  #..+ +@@@@@##++.....++# ",
"## +  .#...+ .@@@@@+++.   ...#++",
"#.   +. ...+..@@@@@+..+++...+..+",
"..## +#.++. . @@@@@.+ ++.. ++...",
".## ++#.+.    @@@@@+ .+.. ++....",
"## ##..++.###.@@@@@+   . .+....#",
"   #.. + ## ..@@@@@+  .    ..++#",
"   ..  +.# .. @@@@@..   . +..+#.",
"  .   ##. .. +@@@@@# .. ....###.",
" . . #+.# ++ #@@@@@ .....+..##..",
"##  #  #.+. ##@@@@@ .###++. ##..",
"#. #  #.++. #+@@@@@   .##  .##..",
"# +#. ..++ .++@@@@@.#.##+ ...#.+",
"###  ..+.. #+ @@@@@.#...#....#++",
"# #. ..+.. #. @@@@@#...#+..###+.",
".# . #+.. .#  &&&&&#.#.#..##....",
"#... #+.. # ++*****.##.##+#...  ",
"..+##+..+  ++.====-.#..#++.#.   ",
"..+##+.+ #++..;;;;;##..#+... . .",
".  #.+++ +...+>>>>,#...+    ....",
"  +#. +. .   .')))!#..  . #.++..",
" +#+.+   . +.#~{{{].. ++ ##++.. ",
".+#+. +   .+.+^///(  ++ #..+..  ",
".+..  #. ..++.____:##+ ##.++.# .",
".+. ##.. .+  .<<<<#.. #.#.+.##..",
"...# ..  + ...<<<<...#..#...#.. ",
"..#.... +.....<<<<.........  .. "};
