/* XPM */
static char * coin_2_xpm[] = {
"32 32 289 2",
"  	c #5A8212",
". 	c #62921D",
"+ 	c #7AAA22",
"@ 	c #64921D",
"# 	c #4B720E",
"$ 	c #FFCC00",
"% 	c #FDCB00",
"& 	c #FFD700",
"* 	c #FFDB00",
"= 	c #FFDF00",
"- 	c #FFE300",
"; 	c #FFE700",
"> 	c #FFEB00",
", 	c #ECDE02",
"' 	c #EDE505",
") 	c #EDE905",
"! 	c #FECC00",
"~ 	c #FFCF00",
"{ 	c #FFD300",
"] 	c #F6C200",
"^ 	c #F6AE00",
"/ 	c #F6B100",
"( 	c #F6B400",
"_ 	c #F6B700",
": 	c #F6BA00",
"< 	c #E3AD05",
"[ 	c #E3CE05",
"} 	c #ECEA03",
"| 	c #ECED03",
"1 	c #FFCD00",
"2 	c #FFD200",
"3 	c #F6A500",
"4 	c #F6A800",
"5 	c #F6AC00",
"6 	c #F6B200",
"7 	c #F6B500",
"8 	c #F6B800",
"9 	c #F6BB00",
"0 	c #E3AC03",
"a 	c #E3AE03",
"b 	c #EDEC05",
"c 	c #EDEF05",
"d 	c #F6AA00",
"e 	c #F6A600",
"f 	c #F6A300",
"g 	c #F6A900",
"h 	c #F6AF00",
"i 	c #F5BC00",
"j 	c #E3AB02",
"k 	c #E3B105",
"l 	c #EDED05",
"m 	c #FFE400",
"n 	c #F6A700",
"o 	c #F6B000",
"p 	c #F6B300",
"q 	c #F5B500",
"r 	c #F5B800",
"s 	c #E5B107",
"t 	c #E3B205",
"u 	c #EDEE05",
"v 	c #FFEE00",
"w 	c #F6D100",
"x 	c #F6A400",
"y 	c #FFFE00",
"z 	c #F5B000",
"A 	c #F5B400",
"B 	c #F5B600",
"C 	c #F5B900",
"D 	c #F5BD00",
"E 	c #E3AD03",
"F 	c #E3B003",
"G 	c #FFF200",
"H 	c #F6B600",
"I 	c #AB4600",
"J 	c #F5AE00",
"K 	c #F5B100",
"L 	c #F5B700",
"M 	c #F5BA00",
"N 	c #E5B007",
"O 	c #E5B307",
"P 	c #E3D105",
"Q 	c #FFFC00",
"R 	c #F6C100",
"S 	c #F6BD00",
"T 	c #F6AB00",
"U 	c #FEFE00",
"V 	c #F5B200",
"W 	c #F5BB00",
"X 	c #ECEB03",
"Y 	c #FFFA00",
"Z 	c #F6C500",
"` 	c #F6C000",
" .	c #F6AD00",
"..	c #F5AF00",
"+.	c #E3AB05",
"@.	c #E5D307",
"#.	c #EEEF07",
"$.	c #FFE900",
"%.	c #F6DB00",
"&.	c #F6C400",
"*.	c #F6BF00",
"=.	c #F6BC00",
"-.	c #FFF900",
";.	c #FEF900",
">.	c #FEF800",
",.	c #F5B300",
"'.	c #E3A703",
").	c #EDE805",
"!.	c #FFE200",
"~.	c #F6B900",
"{.	c #F6C600",
"].	c #F6BE00",
"^.	c #FFED00",
"/.	c #FFEC00",
"(.	c #FEEC00",
"_.	c #FEEB00",
":.	c #E3A803",
"<.	c #FFDC00",
"[.	c #FFE100",
"}.	c #FFE000",
"|.	c #FEE000",
"1.	c #FEDF00",
"2.	c #E3A603",
"3.	c #DD9D07",
"4.	c #EDE205",
"5.	c #B7B90E",
"6.	c #FECB00",
"7.	c #FBC900",
"8.	c #FFD400",
"9.	c #FFD500",
"0.	c #FED400",
"a.	c #FED300",
"b.	c #DC9505",
"c.	c #DC9705",
"d.	c #DCB205",
"e.	c #ECE102",
"f.	c #FCCA00",
"g.	c #F9C700",
"h.	c #AA3900",
"i.	c #DD9607",
"j.	c #ECDD02",
"k.	c #FAC800",
"l.	c #F7C600",
"m.	c #EE9E00",
"n.	c #DD9407",
"o.	c #DC9305",
"p.	c #DC9403",
"q.	c #ECD902",
"r.	c #F8C700",
"s.	c #F5C400",
"t.	c #EE9C00",
"u.	c #DC8D03",
"v.	c #DC8F03",
"w.	c #DC9405",
"x.	c #ECD502",
"y.	c #F9C800",
"z.	c #F3C300",
"A.	c #EE9700",
"B.	c #EE9A00",
"C.	c #DC8C03",
"D.	c #DC8F05",
"E.	c #EDD605",
"F.	c #F8C600",
"G.	c #F2C100",
"H.	c #EFA000",
"I.	c #FED500",
"J.	c #EE9500",
"K.	c #EE9800",
"L.	c #DC8A05",
"M.	c #DC8E05",
"N.	c #DCA405",
"O.	c #EDD205",
"P.	c #496F0D",
"Q.	c #F3C200",
"R.	c #F0C000",
"S.	c #EB8C00",
"T.	c #EF9500",
"U.	c #FEE600",
"V.	c #FFE600",
"W.	c #FEE700",
"X.	c #FEE800",
"Y.	c #DC8905",
"Z.	c #DC8B05",
"`.	c #DEA702",
" +	c #F1C100",
".+	c #EEBE00",
"++	c #FEFA00",
"@+	c #FEFB00",
"#+	c #DC8805",
"$+	c #DB8502",
"%+	c #ECC602",
"&+	c #EFBF00",
"*+	c #ECBD00",
"=+	c #EFA600",
"-+	c #F5F705",
";+	c #F6F705",
">+	c #F5F604",
",+	c #F3F502",
"'+	c #F3F504",
")+	c #F2F302",
"!+	c #F2F404",
"~+	c #F1F302",
"{+	c #EADC04",
"]+	c #EE9D00",
"^+	c #DB8602",
"/+	c #DD8B07",
"(+	c #DB8402",
"_+	c #EDC405",
":+	c #EDBE00",
"<+	c #EABB00",
"[+	c #E7B900",
"}+	c #E6EC0C",
"|+	c #E6E909",
"1+	c #E5E90A",
"2+	c #E3E705",
"3+	c #E2E503",
"4+	c #E3E80A",
"5+	c #E1E404",
"6+	c #DECD08",
"7+	c #EE9F00",
"8+	c #DD9007",
"9+	c #DD8D07",
"0+	c #ECBD02",
"a+	c #E8BA00",
"b+	c #E5B700",
"c+	c #EEA600",
"d+	c #D3DB0E",
"e+	c #D0D505",
"f+	c #CFD505",
"g+	c #CFD405",
"h+	c #D2DA0F",
"i+	c #D4B109",
"j+	c #DB8F02",
"k+	c #DD9307",
"l+	c #EDC205",
"m+	c #E6B800",
"n+	c #E3B600",
"o+	c #E0B300",
"p+	c #C1CE12",
"q+	c #EEA100",
"r+	c #EEA700",
"s+	c #EEAD00",
"t+	c #EEB300",
"u+	c #EEB200",
"v+	c #EEAF00",
"w+	c #E89D00",
"x+	c #DD9807",
"y+	c #DCA103",
"z+	c #ECC403",
"A+	c #E1B400",
"B+	c #DEB200",
"C+	c #EEA200",
"D+	c #EEAE00",
"E+	c #EEB100",
"F+	c #DC9903",
"G+	c #DC9503",
"H+	c #ECCF03",
"I+	c #DFB300",
"J+	c #DCB000",
"K+	c #D9AE00",
"L+	c #EE9900",
"M+	c #EEA300",
"N+	c #EEA900",
"O+	c #EEB000",
"P+	c #DDA107",
"Q+	c #DD9E07",
"R+	c #ECD603",
"S+	c #DAAF00",
"T+	c #D7AC00",
"U+	c #D4AA00",
"V+	c #EEA400",
"W+	c #EEAA00",
"X+	c #DDA707",
"Y+	c #DDA407",
"Z+	c #ECE103",
"`+	c #ECDB02",
" @	c #D5AB00",
".@	c #EEA000",
"+@	c #DB9802",
"@@	c #DDC007",
"#@	c #ECEC03",
"$@	c #ECE502",
"%@	c #EE9600",
"&@	c #DCA805",
"*@	c #EDD905",
"=@	c #ECE203",
"-@	c #EDBC05",
";@	c #EDC005",
">@	c #EDCA05",
"      . . . + . . . . . + + . . @ . # # . . . + # . # . .     . ",
"  . . + # # . . # # $ % & * = - ; > , ' ) . + + + . # . .   . . ",
". . # # # + # # $ $ ! ~ { ] ^ / ( _ : < [ } | . . . . # +   . . ",
". # # . . + # $ $ 1 2 _ 3 4 5 ^ 6 7 8 9 0 a b c . . + # +   . . ",
"# #   # # # $ $ $ * d e f e g 5 h 6 7 8 i j k l c + . . . . . # ",
". # # # + $ $ $ m / 5 g 3 f n d 5 o p q r i s t u c . . + + #   ",
"# #   +   $ $ v w ( o 5 4 x x 4 y y z A B C D E F | . . . # + + ",
"# .     $ $ $ G 9 H p ^ 5 4 f I y y J K q L M N O P c . + . . + ",
". . # # $ $ Q R S : 7 6 ^ T e y y U U J V q r W < k X + + . . . ",
". # # $ $ $ Y Z ` S 8 7 6  .y y U U U U ..V q r +.E @.#.. . . . ",
"# #   $ $ $.%.Z &.*.=.8 7 o -.-.;.>.>.>.>.z ,.q '.+.s ).. . . # ",
"      $ $ !.~.` {.] ].=.^.^././.(.(.(.(.(.(._.A B :.0 ' . + + # ",
"    $ $ % <.7 9 ] {.[.}.}.}.}.}.|.|.|.1.1.1.1.1.1.2.3.4.5.+ # . ",
"    $ 6.7.8.h 7 I 9.9.9.9.9.9.9.0.0.0.0.0.0.0.a.a.b.c.d.e.# # . ",
"  . $ f.g.1 d / _ I $ $ $ $ $ $ ! ! ! ! ! ! ! ! h.i.b.c.j.# . . ",
"# # % k.l.$ 3 5 6 I $ $ ! $ $ $ ! ! ! ! ! ! ! ! m.n.o.p.q.# . . ",
"# . 7.r.s.$ f e 5 p I $ ! $ $ $ ! ! ! ! ! ! ! h.t.u.v.w.x.# . . ",
"#   y.Z z.$ f f 4 ^ 7 ! ! $ $ $ ! ! ! ! ! ! ! A.B.C.D.o.E.# . + ",
"# # F.s.G.$ f f f g H.h.a.8.8.8.0.0.I.I.I.I.I.J.K.L.M.N.O.# + + ",
"#   P.Q.R.$ f S.T.T.t.h.U.V.V.V.U.W.W.W.W.W.X.A.J.Y.Z.`.# # + . ",
". #    +.+$ T.T.T.J.A.h.;.-.-.-.++++++++++@+@+B.#+#+$+%+. . . . ",
"# . . &+*+$ =+T.T.J.J.h.-+;+>+>+,+'+)+!+~+~+{+]+^+/+(+_+. .     ",
". . + :+<+[+$ T.J.J.J.h.}+|+1+1+2+3+3+4+5+4+6+7+8+9+c.0+.       ",
". . + # a+b+$ c+J.J.J.J.d+d+d+e+h.h.h.f+g+h+i+j+k+Z.l+.   .   . ",
".     # m+n+o+! J.J.J.J.p+h.t.q+r+s+t+u+v+h.w+x+v.y+z+  . . . . ",
"    + # . A+B+! ! J.J.J.J.J.A.]+C+r+D+t+E+D+F+G+w.H+# . + + . . ",
"  + # + . I+J+K+! c+J.J.J.J.J.L+m.M+N+v+t+O+P+Q+R+# # + + . .   ",
". + # + .   S+T+U+! c+J.J.J.J.J.B.7+V+W+O+X+Y+Z+`+. . + . .     ",
". + . .     #  @U+U+! ! J.J.J.J.J.B..@c++@@@#@$@# . + + . #   . ",
". + .   # # . .   U+U+! ! ! c+J.J.%@t.&@*@=@# . # . + . # # . . ",
". . . #   . .     + U+U+U+! ! ! ! -@;@>@. # . . # . . . # . .   ",
". . # . . . .   + . . . . .   . . . . . . . . . . . .     . .   "};
