/* XPM */
static char * coin_6_xpm[] = {
"32 32 305 2",
"  	c #5A8212",
". 	c #62921D",
"+ 	c #7AAA22",
"@ 	c #EDE107",
"# 	c #ECDA05",
"$ 	c #FFE700",
"% 	c #FDD500",
"& 	c #FBC900",
"* 	c #4B720E",
"= 	c #EBE602",
"- 	c #EDE607",
"; 	c #EDE207",
"> 	c #FEEB00",
", 	c #F6D000",
"' 	c #FEE200",
") 	c #FFDF00",
"! 	c #FFDC00",
"~ 	c #FFD800",
"{ 	c #FCC900",
"] 	c #FFCC00",
"^ 	c #EBEC02",
"/ 	c #ECE905",
"( 	c #E3CE05",
"_ 	c #E3AB05",
": 	c #F6BA00",
"< 	c #F6B700",
"[ 	c #F6B500",
"} 	c #F6B200",
"| 	c #F6AE00",
"1 	c #F6AC00",
"2 	c #F6BF00",
"3 	c #FFD100",
"4 	c #ECEF05",
"5 	c #ECEB05",
"6 	c #E3B005",
"7 	c #E2A802",
"8 	c #F6BB00",
"9 	c #F6B800",
"0 	c #F6AF00",
"a 	c #F6A900",
"b 	c #F6A600",
"c 	c #F6A300",
"d 	c #FFD000",
"e 	c #FFD500",
"f 	c #EBE805",
"g 	c #E3B105",
"h 	c #E2AA02",
"i 	c #F5BC00",
"j 	c #F5B800",
"k 	c #F6B300",
"l 	c #F6B000",
"m 	c #F6AA00",
"n 	c #F6A700",
"o 	c #F6A400",
"p 	c #F6A500",
"q 	c #F6A800",
"r 	c #F6C300",
"s 	c #FFDE00",
"t 	c #EDF007",
"u 	c #EBEB03",
"v 	c #E2B003",
"w 	c #F5B900",
"x 	c #F5B600",
"y 	c #AB4600",
"z 	c #F6AB00",
"A 	c #FCD900",
"B 	c #EBEC03",
"C 	c #E3B205",
"D 	c #E2AB02",
"E 	c #F5BD00",
"F 	c #F5BA00",
"G 	c #F5B400",
"H 	c #F5B100",
"I 	c #FFFE00",
"J 	c #FFEB00",
"K 	c #FFF000",
"L 	c #EBED03",
"M 	c #E4B707",
"N 	c #E2AA03",
"O 	c #F5B700",
"P 	c #F5B500",
"Q 	c #F5B200",
"R 	c #F5AE00",
"S 	c #FEFE00",
"T 	c #F6AD00",
"U 	c #F6B100",
"V 	c #F6BC00",
"W 	c #FFF400",
"X 	c #EBEA03",
"Y 	c #E4B307",
"Z 	c #F5BB00",
"` 	c #F5AF00",
" .	c #C16200",
"..	c #F6B400",
"+.	c #F6BE00",
"@.	c #FFF800",
"#.	c #E4B407",
"$.	c #E4B007",
"%.	c #F5B300",
"&.	c #F5B000",
"*.	c #F6C200",
"=.	c #F6C600",
"-.	c #FFF700",
";.	c #EBE502",
">.	c #E3A805",
",.	c #F5AD00",
"'.	c #FEF900",
").	c #FFFA00",
"!.	c #F6B600",
"~.	c #F6BD00",
"{.	c #F6C100",
"].	c #F6C500",
"^.	c #EBE202",
"/.	c #FEED00",
"(.	c #FFED00",
"_.	c #FFEE00",
":.	c #F6B900",
"<.	c #F6C000",
"[.	c #F6C400",
"}.	c #FDE500",
"|.	c #FFE000",
"1.	c #EBE403",
"2.	c #DBB505",
"3.	c #DB9805",
"4.	c #E2A503",
"5.	c #FEE000",
"6.	c #FEE100",
"7.	c #FFE100",
"8.	c #FFE200",
"9.	c #FFDA00",
"0.	c #FECB00",
"a.	c #ECE105",
"b.	c #DB9803",
"c.	c #DB9403",
"d.	c #DB9203",
"e.	c #FED500",
"f.	c #FED600",
"g.	c #FFD600",
"h.	c #FFD700",
"i.	c #FFD300",
"j.	c #FCCA00",
"k.	c #F8C401",
"l.	c #EBDD03",
"m.	c #DB9605",
"n.	c #DB9303",
"o.	c #DA8D02",
"p.	c #FECC00",
"q.	c #FAC800",
"r.	c #FDCB00",
"s.	c #EBD903",
"t.	c #DB8E03",
"u.	c #EE9E00",
"v.	c #D28500",
"w.	c #F8C700",
"x.	c #EBD603",
"y.	c #DA8F02",
"z.	c #DB8D03",
"A.	c #EE9D00",
"B.	c #F7C500",
"C.	c #F9C800",
"D.	c #EDD607",
"E.	c #DB8F05",
"F.	c #DB8C03",
"G.	c #EE9A00",
"H.	c #EE9700",
"I.	c #F5C400",
"J.	c #F8C600",
"K.	c #EBCF02",
"L.	c #DB8A05",
"M.	c #EE9800",
"N.	c #EE9500",
"O.	c #FED000",
"P.	c #FECF00",
"Q.	c #FFCF00",
"R.	c #FFCE00",
"S.	c #FECE00",
"T.	c #EDA100",
"U.	c #F3C200",
"V.	c #F9C700",
"W.	c #EBCD02",
"X.	c #DBA205",
"Y.	c #DB8903",
"Z.	c #DB8905",
"`.	c #EE9600",
" +	c #EE9F00",
".+	c #EF9A00",
"++	c #EF9500",
"@+	c #F1C100",
"#+	c #F4C300",
"$+	c #E6C503",
"%+	c #DB9E05",
"&+	c #DB8803",
"*+	c #DA8402",
"=+	c #D27600",
"-+	c #FEF400",
";+	c #FEF300",
">+	c #FFF300",
",+	c #FEF200",
"'+	c #EE9B00",
")+	c #EFA600",
"!+	c #EFBF00",
"~+	c #F2C200",
"{+	c #ECC505",
"]+	c #DB8503",
"^+	c #DA8302",
"/+	c #DC8D07",
"(+	c #EE9C00",
"_+	c #F8F801",
":+	c #F7F801",
"<+	c #F8F901",
"[+	c #F9FA03",
"}+	c #F9FA02",
"|+	c #FAFA02",
"1+	c #F9F901",
"2+	c #EABC00",
"3+	c #EDBE00",
"4+	c #F0C000",
"5+	c #EBBD02",
"6+	c #DC8C07",
"7+	c #DB8B05",
"8+	c #EEA100",
"9+	c #E9EC04",
"0+	c #EBF00A",
"a+	c #EAEE08",
"b+	c #EBEE07",
"c+	c #EBEC04",
"d+	c #EAEB03",
"e+	c #E9EC03",
"f+	c #AE4700",
"g+	c #E8BA00",
"h+	c #EBBC00",
"i+	c #EEBF00",
"j+	c #EBBB02",
"k+	c #DC8E07",
"l+	c #EEA000",
"m+	c #EEA400",
"n+	c #D6DB05",
"o+	c #DCE510",
"p+	c #D9E00D",
"q+	c #B76F04",
"r+	c #DAE10D",
"s+	c #D8DC05",
"t+	c #DBE20D",
"u+	c #D8DD05",
"v+	c #AA3900",
"w+	c #F4B100",
"x+	c #E7B900",
"y+	c #E9BB00",
"z+	c #DC9107",
"A+	c #DC9407",
"B+	c #DC9507",
"C+	c #EEA600",
"D+	c #CCDA15",
"E+	c #EEB300",
"F+	c #EEB000",
"G+	c #EEAA00",
"H+	c #C9D411",
"I+	c #C6CC06",
"J+	c #E2B500",
"K+	c #E5B700",
"L+	c #E8B900",
"M+	c #DEBD08",
"N+	c #EBCC03",
"O+	c #DB9505",
"P+	c #EEA900",
"Q+	c #EEAC00",
"R+	c #EEAF00",
"S+	c #EEB100",
"T+	c #EEAB00",
"U+	c #E0B300",
"V+	c #E3B600",
"W+	c #EDD307",
"X+	c #DBA903",
"Y+	c #DB9503",
"Z+	c #DB9903",
"`+	c #EEAD00",
" @	c #EEA700",
".@	c #EEA200",
"+@	c #DBB000",
"@@	c #DEB200",
"#@	c #E1B400",
"$@	c #EDDC07",
"%@	c #DBB303",
"&@	c #DB9C03",
"*@	c #DBA003",
"=@	c #EEAE00",
"-@	c #EEA800",
";@	c #D6AC00",
">@	c #D9AE00",
",@	c #DCB000",
"'@	c #ECE405",
")@	c #DEC503",
"!@	c #DBA405",
"~@	c #EEA300",
"{@	c #EE9900",
"]@	c #D4AA00",
"^@	c #D7AD00",
"/@	c #ECE705",
"(@	c #DCB507",
"_@	c #78A721",
":@	c #ECD005",
"<@	c #ECC605",
"[@	c #ECBF05",
"}@	c #ECBC05",
"|@	c #EBBB03",
"      . . . + . . . . . + @ # $ % & & * . . . + * . * . .     . ",
"  . . + * * . . * * = - ; > , ' ) ! ~ { ] ] + + + . * . .   . . ",
". . * * * + * * ^ / ( _ : < [ } | 1 2 3 ] ] ] ] . . . * +   . . ",
". * * . . + * 4 5 6 7 8 9 [ } 0 1 a b c d e ] ] ] . + * +   . . ",
"* *   * * * 4 f g h i j [ k l 1 m n o p q r s ] ] ] . . . . . * ",
". * * * + t u v h i w x k l y z q p c q 1 | A $ ] ] ] . + + *   ",
"* *   +   B C D E F x G H I I q p c n z | } [ J K ] ] . . * + + ",
"* .     L M 6 N F O P Q R S I I c b m T U [ 9 V W ] ] ] + . . + ",
". . * * X Y 7 Z j P Q ` S S I I  .a 1 l ..9 V +.@.I ] ] + . . . ",
". * * X #.$.7 j P %.&.S S S S I I 1 0 k < 8 +.*.=.-.] ] ] . . . ",
"* *   ;.h _ >.x %.&.,.'.'.'.'.).).).} !.: ~.{.].r K ] ] ] . . * ",
"      ^._ >.x G /././././././.(._._._.:.~.<.[.].+.}.|.] ] + + * ",
"    1.2.3.4.5.5.6.6.6.6.6.6.6.7.8.8.8.8.8.8.=.2 :.k 9.0.] + * . ",
"    a.b.c.d.e.e.e.f.f.f.f.f.f.g.g.h.h.h.h.h.h.8 [ | i.j.] k.* . ",
"  . l.m.n.o.p.p.p.p.p.p.p.p.p.] ] ] ] ] ] ] y [ | q ] q.r.] . . ",
"* * s.c.o.t.u.p.p.p.p.p.p.p.p.] ] ] p.] ] v.!.l m c ] w.& 0.. . ",
"* . x.y.t.z.A.r.p.p.p.p.p.p.p.] ] ] p.p.] y } 1 p c ] B.C.j.. . ",
"*   D.o.E.F.G.H.p.p.p.p.p.p.p.] ] ] p.p.y k 1 b c c ] I.J.q.. + ",
"* * K.t.F.L.M.N.O.O.O.O.P.P.P.Q.Q.R.S.S.T.| q c c c ] U.].V.+ + ",
"*   W.X.Y.Z.`.H.' ' 6.6.6.6.6.|.|.|.5.5. +.+++c c c ] @+#+* + . ",
". * $+%+&+*+`.G.=+-+-+-+-+;+;+>+>+>+,+,+'+N.++++++)+] !+~+. . . ",
"* . . {+]+^+/+(+ +_+:+<+[+[+}+|+1+|+1+}+H.N.N.++++] 2+3+4+.     ",
". . + 5+^+6+7+u.8+9+9+0+0+a+a+b+c+d+e+f+N.N.N.++++] g+h+i+      ",
". . + j+5+k+E.l+m+n+o+o+p+q+r+s+s+t+u+v+N.N.N.N.w+] x+y+  .   . ",
".     * {+z+A+B+C+D+v+v+E+F+G+m+v+H+I+v+N.N.N.N.p.J+K+L+. . . . ",
"    + * M+N+B+O+P+Q+R+E+S+T+C+l+'+N.N.v+N.N.N.p.p.U+V+. + + . . ",
"  + * + . W+X+Y+Z+R+E+E+`+ @.@A.H.N.N.N.N.N.C+p.+@@@#@+ + . .   ",
". + * + .   $@%@&@*@E+=@-@.@u.M.N.N.N.N.N.C+p.;@>@,@. + . .     ",
". + . .     * '@)@!@%+P+~@u.{@N.N.N.N.N.C+p.]@]@^@. + + . *   . ",
". + .   * * . . L /@(@d. +G.N.N.N.N.C+p.p.]@]@]@* . + . * * . . ",
". . . *   . .     _@x.:@<@ @C+C+p.p.p.p.]@]@. . * . . . * . .   ",
". . * . . . .   + . . . [@}@|@p.p.]@]@]@. . . . . . .     . .   "};
