/* XPM */
static char *_bd3e1f03e6349dbf23d276c8fa537466MJSfjz3sdxYPx5Q[] = {
/* columns rows colors chars-per-pixel */
"16 16 16 1 ",
"  c None",
". c gray5",
"X c #501820",
"o c #5C325C",
"O c #A03040",
"+ c #885B49",
"@ c #DE8C7B",
"# c #525A84",
"$ c #B86488",
"% c #DF8081",
"& c #E8B8B8",
"* c #FFC0AD",
"= c #C8D0D8",
"- c #FFE7CE",
"; c #F7F7DE",
": c white",
/* pixels */
"    .......     ",
"   .&&&&&&&..   ",
"  .&&&&&&&&&&.  ",
" .&&&&&&&&XO&O. ",
".O;;;&$;&;XOXO. ",
"..&&$*$&**$$&&. ",
" .&&$.-$-..o&&. ",
" .&o=X---X=.o&. ",
".$&o:O---O:.o&$.",
".$$$%--@---%$$$.",
".&$o#=***=#.o$. ",
".&$+#:===:#+$$. ",
".&o-*:::::*-o&. ",
".&..+=:::=+..&. ",
" .. .*....*. .. ",
"     ..  ..     "
};
