/* XPM */
static char * 01_xpm[] = {
"24 32 250 2",
"  	c None",
". 	c #72749B",
"+ 	c #7A7CA3",
"@ 	c #8183AA",
"# 	c #7C7EA5",
"$ 	c #6C6F98",
"% 	c #5C5F88",
"& 	c #555881",
"* 	c #565982",
"= 	c #676C96",
"- 	c #60658F",
"; 	c #5A618B",
"> 	c #5F6690",
", 	c #6B729E",
"' 	c #737AA6",
") 	c #7279A5",
"! 	c #6D74A0",
"~ 	c #686F99",
"{ 	c #69709A",
"] 	c #6B729C",
"^ 	c #6C739D",
"/ 	c #6C739F",
"( 	c #6A719D",
"_ 	c #6C6E95",
": 	c #71739A",
"< 	c #797BA2",
"[ 	c #70749A",
"} 	c #5F628B",
"| 	c #62678F",
"1 	c #646993",
"2 	c #676E98",
"3 	c #6D749E",
"4 	c #7178A2",
"5 	c #7077A3",
"6 	c #636A94",
"7 	c #646B95",
"8 	c #656C96",
"9 	c #666D97",
"0 	c #666D99",
"a 	c #656C98",
"b 	c #66688E",
"c 	c #6F7197",
"d 	c #797BA1",
"e 	c #71759A",
"f 	c #5D6187",
"g 	c #000000",
"h 	c #6D759C",
"i 	c #6F779E",
"j 	c #606791",
"k 	c #60688F",
"l 	c #616892",
"m 	c #626993",
"n 	c #686A90",
"o 	c #66698C",
"p 	c #6D6F95",
"q 	c #76799C",
"r 	c #6B6F94",
"s 	c #21110D",
"t 	c #402717",
"u 	c #676F96",
"v 	c #616990",
"w 	c #60688D",
"x 	c #5F678C",
"y 	c #626A91",
"z 	c #636B92",
"A 	c #717497",
"B 	c #6F7293",
"C 	c #737699",
"D 	c #747798",
"E 	c #64688B",
"F 	c #2F0D09",
"G 	c #573A23",
"H 	c #61698D",
"I 	c #60688C",
"J 	c #61698E",
"K 	c #636B90",
"L 	c #656D92",
"M 	c #666E95",
"N 	c #777A9B",
"O 	c #777A99",
"P 	c #76799A",
"Q 	c #6E7190",
"R 	c #5F6484",
"S 	c #626A8E",
"T 	c #636B8F",
"U 	c #656D91",
"V 	c #666E93",
"W 	c #727594",
"X 	c #727693",
"Y 	c #6C6F8E",
"Z 	c #606481",
"` 	c #656E8F",
" .	c #666F90",
"..	c #666E92",
"+.	c #696D8A",
"@.	c #5F6380",
"#.	c #535774",
"$.	c #697293",
"%.	c #687192",
"&.	c #515570",
"*.	c #565A75",
"=.	c #5B5F7A",
"-.	c #6A7392",
";.	c #6B7495",
">.	c #595D78",
",.	c #555974",
"'.	c #535772",
").	c #6B7493",
"!.	c #6C7596",
"~.	c #5E627F",
"{.	c #575B78",
"].	c #525673",
"^.	c #6C4E37",
"/.	c #8C704F",
"(.	c #5D617E",
"_.	c #5C607D",
":.	c #AC7B5D",
"<.	c #5B5E7D",
"[.	c #616483",
"}.	c #676A89",
"|.	c #9A5C42",
"1.	c #676F93",
"2.	c #5E6180",
"3.	c #636685",
"4.	c #686B8A",
"5.	c #C1AC8F",
"6.	c #626586",
"7.	c #646788",
"8.	c #676F94",
"9.	c #636888",
"0.	c #687095",
"a.	c #60698A",
"b.	c #616A8B",
"c.	c #281526",
"d.	c #606B8B",
"e.	c #606A8D",
"f.	c #5E688C",
"g.	c #5E678E",
"h.	c #646C90",
"i.	c #636D90",
"j.	c #626C8F",
"k.	c #606A8E",
"l.	c #626B94",
"m.	c #667093",
"n.	c #656F92",
"o.	c #626C90",
"p.	c #606990",
"q.	c #606992",
"r.	c #646D96",
"s.	c #6B749F",
"t.	c #677195",
"u.	c #667094",
"v.	c #656E95",
"w.	c #636C93",
"x.	c #666F9A",
"y.	c #6B73A1",
"z.	c #787E97",
"A.	c #636D91",
"B.	c #656F93",
"C.	c #666F96",
"D.	c #666F98",
"E.	c #67709B",
"F.	c #69729D",
"G.	c #6C74A2",
"H.	c #A4A8B5",
"I.	c #5F678B",
"J.	c #5B648B",
"K.	c #656E97",
"L.	c #69729B",
"M.	c #6C75A0",
"N.	c #6D76A1",
"O.	c #555E85",
"P.	c #6B749D",
"Q.	c #6F78A3",
"R.	c #4F566D",
"S.	c #5F698D",
"T.	c #646D94",
"U.	c #6C759E",
"V.	c #632C4F",
"W.	c #2C65B5",
"X.	c #30364B",
"Y.	c #5D6589",
"Z.	c #687094",
"`.	c #6C7498",
" +	c #6D779B",
".+	c #697299",
"++	c #6E77A0",
"@+	c #1D438A",
"#+	c #171C31",
"$+	c #7983A6",
"%+	c #6F799C",
"&+	c #697396",
"*+	c #6C769A",
"=+	c #717AA1",
"-+	c #7079A2",
";+	c #0D205E",
">+	c #264550",
",+	c #5E668A",
"'+	c #7782A2",
")+	c #747F9F",
"!+	c #727D9D",
"~+	c #737DA0",
"{+	c #717B9F",
"]+	c #6D7896",
"^+	c #717C9A",
"/+	c #727D9B",
"(+	c #6D7898",
"_+	c #576185",
":+	c #1C2131",
"<+	c #6A7296",
"[+	c #636E8A",
"}+	c #68738F",
"|+	c #677290",
"1+	c #5B6684",
"2+	c #4E5979",
"3+	c #4B5578",
"4+	c #505A7E",
"5+	c #545E82",
"6+	c #5A6487",
"7+	c #555F82",
"8+	c #566181",
"9+	c #5F6A86",
"0+	c #5E6985",
"a+	c #5C6785",
"b+	c #646D8E",
"c+	c #5B6781",
"d+	c #616D87",
"e+	c #4F5A78",
"f+	c #455070",
"g+	c #485373",
"h+	c #545E81",
"i+	c #5C6689",
"j+	c #5B6588",
"k+	c #586285",
"l+	c #545F7F",
"m+	c #586381",
"n+	c #5D6884",
"o+	c #57617A",
"p+	c #5E6881",
"q+	c #5C6681",
"r+	c #505976",
"s+	c #485170",
"t+	c #4C5576",
"u+	c #545C80",
"v+	c #596386",
"w+	c #5C6787",
"x+	c #616C8A",
"y+	c #646F8D",
"z+	c #65708E",
"A+	c #697195",
". + @ # $ % & * = - ; > , ' ) ! ~ { ] ^ / / ( ( ",
"_ : < # [ } * * | 1 2 3 4 5 / ~ 6 7 8 8 9 0 a a ",
"b b c d e f g g g g h i g g 8 8 j k k k k l m 6 ",
"n o p q r g s t t s s s t s g u v w k x k y z 8 ",
"A B C D E g F G G t t s G t s s s H w I J K L M ",
"N O P Q R g s t G G t t G t t G G t g H S T U V ",
"W X Y Z g s t t G G G G G G G G G G t g `  . ...",
"+.+.@.#.s t G G G G G G G G G G G G G t $.$.$.%.",
"&.*.=.s t G G G G G G G G G G G G G G G s -.;.;.",
">.,.'.s t G G G t G G G G G t G G G G G s ).!.;.",
"~.{.].s t t t t t G G G G t ^././.^.G G t s !.;.",
"(._.(.s t t t t t G G G G ^./.:.:./.^.G t s g $.",
"<.[.}.s t G G t G G G G G /.:.:.:.:.|.t t s g 1.",
"2.3.4.s t G G ^./.^.t ^./.^./.5.5./.t s t s g ..",
"6.7.7.s t t G ^.:./.^.^.:././.5.5./.g g s s 8.8.",
"9.9.9.s F t t ^.:.:.:.:.5.:.:.5.5.:.^.s g 0.0.0.",
"a.b.b.I g F t G /.:.:.5.5.5.5.5.5.5.:.c.S U ....",
"d.d.e.f.g.s s t G /.:.:.5.5.5.5.5.5./.s S h.U h.",
"i.j.k.f.g.l.s s t ^./.:.:.:.:.:.:./.G H S T T S ",
"m.n.o.p.q.r.s.s t t ^./.:.:.:.:./.G g H S T S I ",
"t.u.v.w.l.x.y.g t t t ^.z.z.z.z.^.F g I H S H I ",
"A.B.C.D.E.F.G.c.t G G ^.z.z.z.H.^.F s I.I S S S ",
"J.p.K.L.M.N./.:.:./.G ^.z.z.H.H.^.^.^.s I.S h.U ",
"O.J.r.P.Q.g /.5.5./.t ^.z.z.H.z.R././.s I.S U ..",
"k.S.T.U.N.g /.5.5./.V.R.W.W.W.W.X.|./.s Y.S Z.`.",
" +u.A..+++Q.t R.R.W.W.W.@+W.W.W.X.t t #+Y.I h.1.",
"$+%+&+*+=+-+g g X.R.R.@+;+>+R.R.#+g #+,+I.H T h.",
"'+)+!+~+{+#+#+s t t t g g F t t s #+  #+#+T U 1.",
"]+^+/+(+i._+#+#+#+:+:+#+#+#+:+:+#+#+#+Y.I.T 1.<+",
"[+}+|+1+2+3+4+5+S.6+7+8+1+9+0+a+b+S I.Y.,+S ..<+",
"c+d+0+e+f+g+h+i+j+k+h+l+m+n+0+n+ .h.T S S h.1.Z.",
"o+p+q+r+s+t+u+k+k+6+6+v+w+x+y+z+Z.0.0.A+A+A+A+A+"};
