/* XPM */
static char * Wall_xpm[] = {
"32 32 728 2",
"  	c #7A7A78",
". 	c #777876",
"+ 	c #8E8D88",
"@ 	c #83827E",
"# 	c #908F8D",
"$ 	c #7C7D7E",
"% 	c #8C8A85",
"& 	c #8D8D8B",
"* 	c #8E8D8A",
"= 	c #84837D",
"- 	c #848380",
"; 	c #868682",
"> 	c #898987",
", 	c #888784",
"' 	c #828180",
") 	c #8C8886",
"! 	c #838383",
"~ 	c #8D8B8C",
"{ 	c #8D8B8A",
"] 	c #9B9996",
"^ 	c #858280",
"/ 	c #898886",
"( 	c #8B8988",
"_ 	c #7B7A7D",
": 	c #858485",
"< 	c #848383",
"[ 	c #7D7D7D",
"} 	c #848280",
"| 	c #878787",
"1 	c #7E7E7E",
"2 	c #898988",
"3 	c #7B7C79",
"4 	c #898B8A",
"5 	c #8C8C8C",
"6 	c #7B7B7B",
"7 	c #838585",
"8 	c #8D8C89",
"9 	c #7C7C7E",
"0 	c #7F7F81",
"a 	c #919191",
"b 	c #88898D",
"c 	c #8C8B8A",
"d 	c #898786",
"e 	c #807F7C",
"f 	c #878380",
"g 	c #82807E",
"h 	c #8A8888",
"i 	c #7B7A79",
"j 	c #858482",
"k 	c #888580",
"l 	c #7D7B77",
"m 	c #83807C",
"n 	c #8C8B87",
"o 	c #868582",
"p 	c #808082",
"q 	c #838385",
"r 	c #8A8A8A",
"s 	c #898989",
"t 	c #888888",
"u 	c #878785",
"v 	c #81827F",
"w 	c #8D8D8D",
"x 	c #868580",
"y 	c #7D7D7B",
"z 	c #818181",
"A 	c #868686",
"B 	c #878582",
"C 	c #7B7B7D",
"D 	c #7C7A77",
"E 	c #787675",
"F 	c #848281",
"G 	c #8C8988",
"H 	c #9C9B98",
"I 	c #989790",
"J 	c #9F9C96",
"K 	c #898682",
"L 	c #807F84",
"M 	c #89898D",
"N 	c #848589",
"O 	c #868482",
"P 	c #7F7D79",
"Q 	c #84827E",
"R 	c #8D8B86",
"S 	c #8F8D88",
"T 	c #878682",
"U 	c #888783",
"V 	c #8B8B8B",
"W 	c #8A8880",
"X 	c #888881",
"Y 	c #8D8C87",
"Z 	c #8C8C8A",
"` 	c #858480",
" .	c #8B8A83",
"..	c #808080",
"+.	c #7F7F80",
"@.	c #807E7B",
"#.	c #8E8E8C",
"$.	c #9B9B9D",
"%.	c #939494",
"&.	c #90908F",
"*.	c #79797B",
"=.	c #7A7A7E",
"-.	c #7A7B7D",
";.	c #7D7D7F",
">.	c #82817F",
",.	c #858788",
"'.	c #7D7C80",
").	c #747579",
"!.	c #828186",
"~.	c #8B8B8A",
"{.	c #878789",
"].	c #818183",
"^.	c #848482",
"/.	c #818487",
"(.	c #777A7E",
"_.	c #8A8B8C",
":.	c #7D7A76",
"<.	c #7E7F81",
"[.	c #777779",
"}.	c #94948E",
"|.	c #93928C",
"1.	c #8C8C85",
"2.	c #8F8C85",
"3.	c #807F7A",
"4.	c #7F7D7B",
"5.	c #767774",
"6.	c #716F6C",
"7.	c #8C8A8A",
"8.	c #87868A",
"9.	c #7E7E7F",
"0.	c #88898B",
"a.	c #858382",
"b.	c #808283",
"c.	c #858489",
"d.	c #86878B",
"e.	c #8A8886",
"f.	c #8A8986",
"g.	c #8E8D8B",
"h.	c #91908E",
"i.	c #7D7E80",
"j.	c #8A8A87",
"k.	c #828284",
"l.	c #8C8D8F",
"m.	c #898A8C",
"n.	c #8C8B88",
"o.	c #8E8F8B",
"p.	c #96989A",
"q.	c #929294",
"r.	c #919193",
"s.	c #969593",
"t.	c #8C8C8D",
"u.	c #818384",
"v.	c #858587",
"w.	c #868581",
"x.	c #878482",
"y.	c #858481",
"z.	c #817F79",
"A.	c #8D8B84",
"B.	c #928F89",
"C.	c #969490",
"D.	c #908E87",
"E.	c #8F8E89",
"F.	c #7B7C80",
"G.	c #818286",
"H.	c #7C7D81",
"I.	c #91939B",
"J.	c #797A7A",
"K.	c #898681",
"L.	c #8A8985",
"M.	c #7F7E7C",
"N.	c #848481",
"O.	c #77797A",
"P.	c #89898B",
"Q.	c #838285",
"R.	c #93908C",
"S.	c #94928F",
"T.	c #8F8D89",
"U.	c #85837F",
"V.	c #868280",
"W.	c #8E8C84",
"X.	c #828385",
"Y.	c #7F8183",
"Z.	c #838482",
"`.	c #828485",
" +	c #959391",
".+	c #77787E",
"++	c #7E8087",
"@+	c #707379",
"#+	c #7C7E88",
"$+	c #707077",
"%+	c #929293",
"&+	c #818085",
"*+	c #878786",
"=+	c #8F9092",
"-+	c #88888A",
";+	c #898684",
">+	c #8B8C8C",
",+	c #828282",
"'+	c #858686",
")+	c #898785",
"!+	c #7D7D7E",
"~+	c #838281",
"{+	c #8A8B89",
"]+	c #868888",
"^+	c #92918D",
"/+	c #858689",
"(+	c #888A8B",
"_+	c #7C7C7F",
":+	c #8A8A8C",
"<+	c #8A8C8E",
"[+	c #898788",
"}+	c #898A8D",
"|+	c #7E8188",
"1+	c #7C7E85",
"2+	c #8B8985",
"3+	c #8E8C88",
"4+	c #91918D",
"5+	c #8C8B86",
"6+	c #7D7B79",
"7+	c #747371",
"8+	c #7A7879",
"9+	c #757576",
"0+	c #8C8C8E",
"a+	c #747678",
"b+	c #929495",
"c+	c #7F8182",
"d+	c #8A8A89",
"e+	c #7A7C7D",
"f+	c #7F7D7E",
"g+	c #868684",
"h+	c #848387",
"i+	c #83868B",
"j+	c #7A7B7E",
"k+	c #848483",
"l+	c #7B7975",
"m+	c #837F7A",
"n+	c #74706C",
"o+	c #6E6D69",
"p+	c #7E7F7D",
"q+	c #8E8E8E",
"r+	c #818280",
"s+	c #7F7E79",
"t+	c #92908D",
"u+	c #908E89",
"v+	c #92908F",
"w+	c #959392",
"x+	c #8E8D8C",
"y+	c #878585",
"z+	c #888886",
"A+	c #94928C",
"B+	c #7F7C78",
"C+	c #8E8B87",
"D+	c #92908C",
"E+	c #8F8C87",
"F+	c #81807A",
"G+	c #83827F",
"H+	c #898885",
"I+	c #908E8B",
"J+	c #83807E",
"K+	c #8C8B89",
"L+	c #828380",
"M+	c #858583",
"N+	c #727371",
"O+	c #7F7F7D",
"P+	c #8A8984",
"Q+	c #737170",
"R+	c #676665",
"S+	c #8A8A8B",
"T+	c #8B8B89",
"U+	c #797A7C",
"V+	c #747578",
"W+	c #838386",
"X+	c #868687",
"Y+	c #91908F",
"Z+	c #868583",
"`+	c #999894",
" @	c #858585",
".@	c #8F9192",
"+@	c #8D8E8F",
"@@	c #969591",
"#@	c #888683",
"$@	c #979490",
"%@	c #767475",
"&@	c #7B797A",
"*@	c #757575",
"=@	c #7A7977",
"-@	c #777777",
";@	c #96938E",
">@	c #93948E",
",@	c #8F8E8C",
"'@	c #959492",
")@	c #8F8E8A",
"!@	c #8F8D8C",
"~@	c #878685",
"{@	c #908F8C",
"]@	c #8E8A87",
"^@	c #8E8D8D",
"/@	c #939394",
"(@	c #8D8B87",
"_@	c #918E8D",
":@	c #6E6D6F",
"<@	c #717070",
"[@	c #807F81",
"}@	c #757474",
"|@	c #878580",
"1@	c #9A9A97",
"2@	c #999695",
"3@	c #A19F9B",
"4@	c #97948E",
"5@	c #9F9E9A",
"6@	c #9D9B98",
"7@	c #989694",
"8@	c #95938E",
"9@	c #888988",
"0@	c #838381",
"a@	c #8B8C8A",
"b@	c #797876",
"c@	c #868483",
"d@	c #777676",
"e@	c #7A7C7F",
"f@	c #969495",
"g@	c #8F9193",
"h@	c #97989C",
"i@	c #9FA0A4",
"j@	c #96958F",
"k@	c #8E8B85",
"l@	c #999691",
"m@	c #96938F",
"n@	c #94918C",
"o@	c #98948C",
"p@	c #92918C",
"q@	c #82807F",
"r@	c #858582",
"s@	c #8B8A86",
"t@	c #7F7C77",
"u@	c #818082",
"v@	c #838284",
"w@	c #7C7C7A",
"x@	c #838280",
"y@	c #878687",
"z@	c #7B7B7A",
"A@	c #7E7C7E",
"B@	c #817F7A",
"C@	c #918F8A",
"D@	c #8E8D8E",
"E@	c #8E8C8B",
"F@	c #85837E",
"G@	c #83807B",
"H@	c #84817F",
"I@	c #828280",
"J@	c #7F7F7C",
"K@	c #878888",
"L@	c #7F8084",
"M@	c #848381",
"N@	c #7C7A79",
"O@	c #909092",
"P@	c #868484",
"Q@	c #807D7B",
"R@	c #827F82",
"S@	c #7E7E80",
"T@	c #828183",
"U@	c #9A9794",
"V@	c #959593",
"W@	c #949599",
"X@	c #909195",
"Y@	c #8C9093",
"Z@	c #8B8C8F",
"`@	c #86898D",
" #	c #82858A",
".#	c #7C8084",
"+#	c #8F9091",
"@#	c #7C7D82",
"##	c #818387",
"$#	c #919295",
"%#	c #818386",
"&#	c #868689",
"*#	c #8B8D8C",
"=#	c #898888",
"-#	c #918E8B",
";#	c #797673",
">#	c #7C7976",
",#	c #8B8883",
"'#	c #8F8C88",
")#	c #8C8984",
"!#	c #7B7D7E",
"~#	c #848687",
"{#	c #707174",
"]#	c #7B7C7E",
"^#	c #727476",
"/#	c #6B6B6B",
"(#	c #8A8C8B",
"_#	c #797C80",
":#	c #6F7276",
"<#	c #818083",
"[#	c #807F83",
"}#	c #818283",
"|#	c #848382",
"1#	c #83817D",
"2#	c #92908B",
"3#	c #8D8C88",
"4#	c #8B8986",
"5#	c #999793",
"6#	c #908C89",
"7#	c #94908C",
"8#	c #A19E9A",
"9#	c #878686",
"0#	c #828388",
"a#	c #86878C",
"b#	c #7C7F83",
"c#	c #838283",
"d#	c #7D7F80",
"e#	c #77787A",
"f#	c #969797",
"g#	c #A0A09F",
"h#	c #A09F9E",
"i#	c #A4A4A4",
"j#	c #9F9F9C",
"k#	c #A29E99",
"l#	c #999997",
"m#	c #929190",
"n#	c #8D8B89",
"o#	c #A09D9A",
"p#	c #949394",
"q#	c #8E8E8D",
"r#	c #87888B",
"s#	c #7D7D81",
"t#	c #868587",
"u#	c #86878A",
"v#	c #87878A",
"w#	c #8D8E90",
"x#	c #8C8E91",
"y#	c #888A8D",
"z#	c #78797B",
"A#	c #7E7F84",
"B#	c #85868A",
"C#	c #8B8A85",
"D#	c #6D6C6F",
"E#	c #6B6C6C",
"F#	c #6B6B6C",
"G#	c #656565",
"H#	c #8C8A86",
"I#	c #76777B",
"J#	c #828387",
"K#	c #76787B",
"L#	c #848485",
"M#	c #868480",
"N#	c #979695",
"O#	c #92918E",
"P#	c #7A7876",
"Q#	c #81817D",
"R#	c #8A8783",
"S#	c #94918F",
"T#	c #8E8E8A",
"U#	c #93918F",
"V#	c #8F8E8B",
"W#	c #989693",
"X#	c #A3A19C",
"Y#	c #828386",
"Z#	c #87898D",
"`#	c #8D8E92",
" $	c #979A9E",
".$	c #7D7F82",
"+$	c #808185",
"@$	c #8D8C8E",
"#$	c #84858A",
"$$	c #7C7F84",
"%$	c #979799",
"&$	c #858384",
"*$	c #7F8083",
"=$	c #828486",
"-$	c #7E8186",
";$	c #85888D",
">$	c #85888F",
",$	c #8E8F91",
"'$	c #858488",
")$	c #868589",
"!$	c #848588",
"~$	c #8E8E90",
"{$	c #808184",
"]$	c #91918E",
"^$	c #8E8D89",
"/$	c #8B8A87",
"($	c #8B8A88",
"_$	c #7D7D7C",
":$	c #797878",
"<$	c #7E7C7C",
"[$	c #7D7C7C",
"}$	c #7C7B7D",
"|$	c #868785",
"1$	c #807E7F",
"2$	c #7A7B7A",
"3$	c #84817E",
"4$	c #81807E",
"5$	c #909397",
"6$	c #727378",
"7$	c #6E7175",
"8$	c #888789",
"9$	c #7B7C81",
"0$	c #7A7B80",
"a$	c #75767A",
"b$	c #838485",
"c$	c #88878A",
"d$	c #7A7A7C",
"e$	c #959796",
"f$	c #818287",
"g$	c #848586",
"h$	c #878584",
"i$	c #807F7D",
"j$	c #908F8E",
"k$	c #9D9D9F",
"l$	c #919091",
"m$	c #898A8F",
"n$	c #7A7D83",
"o$	c #8A8B90",
"p$	c #7E7D7B",
"q$	c #999795",
"r$	c #787774",
"s$	c #8C8A87",
"t$	c #8A8988",
"u$	c #7E7F7F",
"v$	c #868788",
"w$	c #8D8D8A",
"x$	c #989893",
"y$	c #868887",
"z$	c #878889",
"A$	c #7E8083",
"B$	c #939291",
"C$	c #9E9C9B",
"D$	c #8E8C89",
"E$	c #848587",
"F$	c #7E7F82",
"G$	c #909299",
"H$	c #808186",
"I$	c #8D8C8B",
"J$	c #989898",
"K$	c #949494",
"L$	c #848486",
"M$	c #97989A",
"N$	c #777775",
"O$	c #7B7B79",
"P$	c #878683",
"Q$	c #787979",
"R$	c #737577",
"S$	c #858784",
"T$	c #828586",
"U$	c #797A7F",
"V$	c #7F8185",
"W$	c #838382",
"X$	c #838589",
"Y$	c #79797D",
"Z$	c #807E7D",
"`$	c #969696",
" %	c #83837F",
".%	c #8B8987",
"+%	c #949390",
"@%	c #7E7E7C",
"#%	c #949496",
"$%	c #86898E",
"%%	c #8A8782",
"&%	c #979595",
"*%	c #818180",
"=%	c #767876",
"-%	c #818182",
";%	c #7F7D7C",
">%	c #8F8F90",
",%	c #7F8082",
"'%	c #888787",
")%	c #858483",
"!%	c #7E7C7B",
"~%	c #838180",
"{%	c #8B8885",
"]%	c #8B8B8C",
"^%	c #8B8A8A",
"/%	c #8C8B8B",
"(%	c #888687",
"_%	c #94908B",
":%	c #83817E",
"<%	c #909090",
"[%	c #64676C",
"}%	c #727377",
"|%	c #8F8F8F",
"1%	c #8B8C90",
"2%	c #828487",
"3%	c #8B8E92",
"4%	c #838484",
"5%	c #858584",
"6%	c #878688",
"7%	c #8F8F91",
"8%	c #949497",
"9%	c #878581",
"0%	c #7F7C79",
"a%	c #7D7A77",
"b%	c #7E7975",
"c%	c #9C9893",
"d%	c #989593",
"e%	c #8F8C89",
"f%	c #8A8885",
"g%	c #86837E",
"h%	c #868688",
"i%	c #8C8E8F",
"j%	c #808183",
"k%	c #9B9894",
"l%	c #8C8A89",
"m%	c #949391",
"n%	c #838588",
"o%	c #797A7E",
"p%	c #939393",
"q%	c #77797C",
"r%	c #78797C",
"s%	c #99999A",
"t%	c #7D7C7A",
"u%	c #868486",
"v%	c #797879",
"w%	c #9B9893",
"x%	c #92908E",
"y%	c #898584",
"z%	c #8A8786",
"A%	c #7F7D7D",
"B%	c #959394",
"C%	c #827F7D",
"D%	c #7E7D7A",
"E%	c #7C7B7C",
"F%	c #75716D",
"G%	c #73706C",
"H%	c #72726E",
"I%	c #727170",
"J%	c #858688",
"K%	c #7B7B78",
"L%	c #98958D",
"M%	c #908D84",
"N%	c #727270",
"O%	c #6F6E6D",
"P%	c #969594",
"Q%	c #8C8A8D",
"R%	c #8B8A8D",
"S%	c #8C8D91",
"T%	c #8E8C8D",
"U%	c #8F8D8E",
"V%	c #858484",
"W%	c #8A8989",
"X%	c #A4A4A3",
"Y%	c #9E9F9F",
"Z%	c #959694",
"`%	c #878988",
" &	c #99999B",
".&	c #94918E",
"+&	c #7D7C7B",
"@&	c #888785",
"#&	c #888682",
"$&	c #848484",
"%&	c #918F8B",
"&&	c #8B8A89",
"*&	c #7B7A76",
"=&	c #676769",
"-&	c #797778",
";&	c #85827D",
">&	c #747272",
",&	c #6A6868",
"'&	c #706F6F",
")&	c #6C6B6D",
"!&	c #898783",
"~&	c #928F8B",
"{&	c #898787",
"]&	c #848282",
"^&	c #817F80",
"/&	c #918F92",
"(&	c #94938E",
"_&	c #81807F",
":&	c #787671",
"<&	c #999794",
"[&	c #727274",
"}&	c #868789",
"|&	c #807F82",
"1&	c #87888C",
"2&	c #838488",
"3&	c #898784",
"4&	c #75736F",
"5&	c #85817E",
"6&	c #8F8B88",
"7&	c #959490",
"8&	c #8D8A86",
"9&	c #94908E",
"0&	c #9B9896",
"a&	c #9C9995",
"b&	c #90908C",
"c&	c #91908C",
"d&	c #9A9792",
"e&	c #959590",
"f&	c #7A7A7A",
"g&	c #848487",
"h&	c #9D9C97",
"i&	c #8A8C8D",
"j&	c #838486",
"k&	c #949491",
"l&	c #909193",
"m&	c #7A7B7F",
"n&	c #8C8C8B",
"o&	c #7F7E7D",
"p&	c #807D77",
"q&	c #868381",
"r&	c #8F8B86",
"s&	c #8D8C8A",
"t&	c #8C8D8D",
"u&	c #8B8989",
"v&	c #838384",
"w&	c #888681",
"x&	c #7D7B7A",
"y&	c #A09D96",
"z&	c #8A8884",
"A&	c #8A8A85",
"B&	c #878583",
"C&	c #84827F",
"D&	c #99978E",
"E&	c #918D86",
"F&	c #8C8A81",
"G&	c #8A8680",
"H&	c #8A8881",
"I&	c #8A867F",
"J&	c #8A8780",
"K&	c #8B8983",
"L&	c #939088",
"M&	c #959189",
"N&	c #908D88",
"O&	c #999692",
"P&	c #8C8985",
"Q&	c #83807D",
"R&	c #888581",
"S&	c #928E83",
"  . + @ # $ % & * = - ; > , ' ) ! ~ { ] ^ / ( { _ : < [ } | 1 @ ",
"2 3 4 5 6 7 8 9 0 a b c d e f g h i j k l m n o p q > r s t u > ",
"v - [ ! w x y z A B C D E F G H I J K ( L M N O P Q R S T o U V ",
"W X Y Z `  .z ..+.@.#.$.%.&.*.=.-.;.>.,.'.).!.~.{.p ].^./.(._.:.",
"Y A 6 <.[.}.|.1.2.3.4.5.6.7.8.9.0.L a.b.c.d.b e.q ].{.- f.g.h.S ",
"i.j.k.l.m.n.;.;.o.p.q.{.r.s.t.k.u.v.w.R T x.y.z.A.B.C.D.E.F.G.H.",
"I.J.K.e L.w.M.y N.{.O.P.Q.R.S.T.U.V.A.W.X.0 Y.<.Z.9 `.[. +.+++@+",
"#+$+%+&+*+s =+-+;+Q.>+,+'+)+!+~+9.{+]+^+,+{.G./+(+_+:+<+[+}+|+1+",
"2+3+4+U.5+6+7+8+B 9+:+0+a+b+c+d+G.0 e+f+g+h+i+j+k+l+m+n+o++ @.% ",
"p+q+r+s+@ t+u+d+v+w+x+..y+z+Z.A+B+C+E.D+k E+F+G+H+I+J+e.K+f.y.L+",
"M+N+O+P+Q+R+` S+0+z T+U+V+W+X+Y+Z+`+ @.@+@A V @@#@$@%@&@*@=@=@-@",
";@>@,@* '@)@!@~@{@B ]@^@/@(@_@f.B L.>.:@<@[@}@|@1@2@3@4@5@6@7@8@",
"T.9@N.0@a@T b@c@c M.d@e@F.f@g@h@i@j@k@l@m@n@o@p@q@r@s@t@ @u@v@0+",
"w@a+x@y@z@A@* B@C@K+D@E@8 U.F@G@H@I@J@K@V+L@M@N@ @O@P@Q@R@S@q T@",
"^+U@V@W@X@Y@Z@}+`@ #.#+#@###$#{ %#/+&#*#-+=#-#;#>#,#'#)#)#T.6+K+",
"!#~#g {#]#^#/#(#)._#:#<#[#}#|#1#2#D 3#4#5#6#7#5#8#9#0#a#b#c#d#e#",
"f#g#h#i#j#k#l#m#n#o#p#q#r#s#[+d.t#u#/+v#w#x#}+y#z#9#A#0#B#,+C#_.",
"D#E#F#G#H#r#I#J#B#K#~.L#5 Z+4#M#N#O#O#L.s@P#Q#R#S#T#U#V#W#L.X#{@",
"Y#Z#`# $+@.$G.+$/+@$/+#$$$,.%$&$*$^#=$T@-$;$>$,$'$)$r#!$~${$;.]$",
"^$/$($s & _$:$6 <$>.[$[.}$|$1$< 2$a.3$4$5$6$7$8$9$@#0$a$b$L@c$d$",
"e$H.f$A#g$h$,+0 [.i$j$k$c.l$m$n$o$p$q$r$E@s@H+s$e.( ~+t$u$v$w$x$",
"y$A z$A$@$B$m#C$s.8+D$E$F$p G$H$a#I$r.J$K$w$L$M$q.Y+F N$O$P$Q$R$",
"_.A$R$A$=$S$`@T$v@U$V$W$1 s X$##Y$Z$O@`$a  %P#} .%+%@%#%5 I$/.$%",
"%%B$&%*%=%Z+-%;%>%k.,%g+'% @)%!%~%{%N@]%^%/%(%_%~@@ )%)#Z+{@:%w.",
"<%[%}%|%1%<+c$2%r B#3%g$4%5%6%7%8%9%K.3$0%a%b%c%d%e%f%g%h%i%j%z ",
"k%&.l%m%:+,$n%o%p%q%r%s%t%0+u%v%W$w%x%x.y%z%~ S@d$A%B%C%:$D%^ P$",
"*$E%C 4$F%G%H%I%!@J%'%K%L%M%u+q@N@N%O%P%Q%K@R%-+S%u#8 T%U%!%T l$",
"V%W%9@f.X%Y%Z%/ (#i%| ,.`%u T%#%-+ &q.* T..&#@+&@&6+n 4#l #&'+$&",
"C+c n.%&&&A { *&;%=&f+-&M.;&;%>&,&'&)&!&B$~&{&]&^&/&<$f%,@(&_&:&",
"<&[&}&|&J%1&2&3&4&5&6&7&~@8&9&0&a&b&c&d&e&:%f&p .@c+0.V#A ,+W$g&",
"h&0 i&L$v.U+j&k&l&L@m&n&<.o&p&q&r&s&h t&4#u&q P.c+k.v&w&$&A x&0@",
"y&z&% A&T.B&, C&4#v.n%l%` 8&D&E&F&G&H&I&J&K&L&M&R N&O&P&Q&R&I+S&"};
