/* XPM */
static char * 02_xpm[] = {
"32 32 384 2",
"  	c #6D7292",
". 	c #747999",
"+ 	c #7C7FA0",
"@ 	c #757A9A",
"# 	c #686E90",
"$ 	c #5B5F82",
"% 	c #565A7D",
"& 	c #565B7B",
"* 	c #656B8D",
"= 	c #606688",
"- 	c #596185",
"; 	c #5D6687",
"> 	c #687094",
", 	c #6E789C",
"' 	c #6D779B",
") 	c #697196",
"! 	c #676D91",
"~ 	c #686E92",
"{ 	c #676F93",
"] 	c #687192",
"^ 	c #697195",
"/ 	c #667093",
"( 	c #626C90",
"_ 	c #606A8D",
": 	c #656D94",
"< 	c #7179A0",
"[ 	c #737CA5",
"} 	c #6D749E",
"| 	c #747DA6",
"1 	c #696C8B",
"2 	c #6C7191",
"3 	c #747798",
"4 	c #777C9C",
"5 	c #6C7292",
"6 	c #5E6383",
"7 	c #575C7C",
"8 	c #616787",
"9 	c #62688A",
"0 	c #656D91",
"a 	c #697293",
"b 	c #6C7498",
"c 	c #6B7599",
"d 	c #5F6A8A",
"e 	c #616A8B",
"f 	c #626A8E",
"g 	c #636B8F",
"h 	c #636B90",
"i 	c #626A8F",
"j 	c #606A8E",
"k 	c #656D92",
"l 	c #6E769D",
"m 	c #70789F",
"n 	c #69729B",
"o 	c #6F779E",
"p 	c #646788",
"q 	c #6A6F8F",
"r 	c #737896",
"s 	c #6D7393",
"t 	c #5D6280",
"u 	c #555A78",
"v 	c #585D7B",
"w 	c #606686",
"x 	c #666C8C",
"y 	c #000000",
"z 	c #5E6987",
"A 	c #5F6A88",
"B 	c #5C6A87",
"C 	c #5F6889",
"D 	c #60698A",
"E 	c #626A91",
"F 	c #60688C",
"G 	c #6A739A",
"H 	c #6C759C",
"I 	c #697299",
"J 	c #6D769D",
"K 	c #666988",
"L 	c #646885",
"M 	c #6A6D8C",
"N 	c #727693",
"O 	c #686D8B",
"P 	c #535875",
"Q 	c #5C6181",
"R 	c #636989",
"S 	c #291715",
"T 	c #44291E",
"U 	c #452A1F",
"V 	c #291713",
"W 	c #010000",
"X 	c #62688C",
"Y 	c #6A7498",
"Z 	c #697397",
"` 	c #677399",
" .	c #6C769A",
"..	c #6D728F",
"+.	c #6B718B",
"@.	c #6F7491",
"#.	c #545A74",
"$.	c #555A77",
"%.	c #636784",
"&.	c #676D8D",
"*.	c #371110",
"=.	c #5B3C2A",
"-.	c #5C3D2B",
";.	c #281614",
">.	c #626B8A",
",.	c #636C8D",
"'.	c #626D8D",
").	c #626C8F",
"!.	c #666E92",
"~.	c #666E93",
"{.	c #737794",
"].	c #737792",
"^.	c #696F87",
"/.	c #5F657F",
"(.	c #575D75",
"_.	c #5C637D",
":.	c #656A87",
"<.	c #626985",
"[.	c #5B3C28",
"}.	c #442C20",
"|.	c #636C8B",
"1.	c #606988",
"2.	c #5D6888",
"3.	c #5E6989",
"4.	c #6D738B",
"5.	c #6E748C",
"6.	c #696D88",
"7.	c #5F647A",
"8.	c #5A6078",
"9.	c #5D637B",
"0.	c #61657E",
"a.	c #616781",
"b.	c #261714",
"c.	c #472B20",
"d.	c #5A3B29",
"e.	c #626B88",
"f.	c #5F6887",
"g.	c #5B6483",
"h.	c #616A89",
"i.	c #676D87",
"j.	c #666C84",
"k.	c #5E6379",
"l.	c #54596F",
"m.	c #565C72",
"n.	c #61667C",
"o.	c #62667F",
"p.	c #462A1F",
"q.	c #5C3B2A",
"r.	c #5B3B2C",
"s.	c #5A3D2B",
"t.	c #5E6786",
"u.	c #5B6481",
"v.	c #5C6582",
"w.	c #6A7392",
"x.	c #697492",
"y.	c #687190",
"z.	c #52576B",
"A.	c #5B6076",
"B.	c #60657B",
"C.	c #5F637C",
"D.	c #616C88",
"E.	c #616A87",
"F.	c #5E6784",
"G.	c #666F8E",
"H.	c #595E72",
"I.	c #555B71",
"J.	c #56586D",
"K.	c #5C6278",
"L.	c #646A82",
"M.	c #5C3C2D",
"N.	c #452A21",
"O.	c #583B29",
"P.	c #291717",
"Q.	c #5D6683",
"R.	c #575D73",
"S.	c #53586E",
"T.	c #555B73",
"U.	c #686E86",
"V.	c #593C2A",
"W.	c #714E3A",
"X.	c #906E55",
"Y.	c #916F54",
"Z.	c #6F4E3B",
"`.	c #5D6886",
" +	c #5C627A",
".+	c #5B6179",
"++	c #5B637A",
"@+	c #686E88",
"#+	c #906E53",
"$+	c #B0785F",
"%+	c #646D8C",
"&+	c #60647D",
"*+	c #656982",
"=+	c #696E84",
"-+	c #646B85",
";+	c #AF775C",
">+	c #A15847",
",+	c #626B8C",
"'+	c #656E8F",
")+	c #666F90",
"!+	c #646C90",
"~+	c #5D617A",
"{+	c #63657E",
"]+	c #666A83",
"^+	c #606680",
"/+	c #6E4F3A",
"(+	c #C3A992",
"_+	c #C3A990",
":+	c #5F6A86",
"<+	c #677091",
"[+	c #60647F",
"}+	c #626681",
"|+	c #5F6481",
"1+	c #626683",
"2+	c #432B1F",
"3+	c #677292",
"4+	c #616683",
"5+	c #626888",
"6+	c #462B20",
"7+	c #6E4F3B",
"8+	c #C4AA93",
"9+	c #C4AA91",
"0+	c #B1775F",
"a+	c #63698B",
"b+	c #6A7797",
"c+	c #6C7797",
"d+	c #5E6883",
"e+	c #5F6984",
"f+	c #616884",
"g+	c #5D6884",
"h+	c #5D6685",
"i+	c #391111",
"j+	c #C4A892",
"k+	c #B0785D",
"l+	c #2D1B29",
"m+	c #6A7593",
"n+	c #5E6A84",
"o+	c #5F6885",
"p+	c #5C6787",
"q+	c #656F93",
"r+	c #452B1E",
"s+	c #C2A891",
"t+	c #606986",
"u+	c #677290",
"v+	c #606B8B",
"w+	c #656F92",
"x+	c #6A7497",
"y+	c #6C799C",
"z+	c #AF795F",
"A+	c #000100",
"B+	c #636E8A",
"C+	c #626D89",
"D+	c #606B87",
"E+	c #687295",
"F+	c #727C9F",
"G+	c #2A1816",
"H+	c #6F4E3D",
"I+	c #AF775E",
"J+	c #656E8D",
"K+	c #646F8D",
"L+	c #636E8C",
"M+	c #616C8C",
"N+	c #636D91",
"O+	c #677097",
"P+	c #6B749B",
"Q+	c #6F7C9F",
"R+	c #000002",
"S+	c #747F93",
"T+	c #767E93",
"U+	c #626D8B",
"V+	c #636E8E",
"W+	c #636D90",
"X+	c #646E92",
"Y+	c #687198",
"Z+	c #69759B",
"`+	c #7079A0",
" @	c #2E1C2C",
".@	c #A3A7B3",
"+@	c #606784",
"@@	c #697291",
"#@	c #5A6583",
"$@	c #697396",
"%@	c #6B7598",
"&@	c #68749A",
"*@	c #767FA6",
"=@	c #916D53",
"-@	c #A2A8B4",
";@	c #67708F",
">@	c #545F7D",
",@	c #5A6585",
"'@	c #6D759C",
")@	c #7D86AD",
"!@	c #4F576C",
"~@	c #66718F",
"{@	c #687393",
"]@	c #677194",
"^@	c #707EA3",
"/@	c #7881A8",
"(@	c #672E4E",
"_@	c #0567B0",
":@	c #0567B2",
"<@	c #32394B",
"[@	c #A05947",
"}@	c #677592",
"|@	c #6A7595",
"1@	c #616F8A",
"2@	c #657090",
"3@	c #687597",
"4@	c #737DA0",
"5@	c #727EA4",
"6@	c #4D586C",
"7@	c #034784",
"8@	c #646D8E",
"9@	c #757E9D",
"0@	c #6B7694",
"a@	c #6B7696",
"b@	c #6C7699",
"c@	c #4E566B",
"d@	c #03285C",
"e@	c #224950",
"f@	c #1B2033",
"g@	c #717F99",
"h@	c #6E7C96",
"i@	c #6C7A94",
"j@	c #6F7A98",
"k@	c #6D7896",
"l@	c #646F8F",
"m@	c #566181",
"n@	c #4E5776",
"o@	c #596484",
"p@	c #596482",
"q@	c #69758F",
"r@	c #6B7993",
"s@	c #6E7A94",
"t@	c #697490",
"u@	c #616D87",
"v@	c #57627E",
"w@	c #4F5875",
"x@	c #495470",
"y@	c #58637F",
"z@	c #67728E",
"A@	c #636B82",
"B@	c #657187",
"C@	c #647088",
"D@	c #5A667C",
"E@	c #4F5B75",
"F@	c #4D5772",
"G@	c #515C78",
"H@	c #54607A",
"I@	c #596480",
"J@	c #55607C",
"K@	c #54627C",
"L@	c #5A667E",
"M@	c #5D697F",
"N@	c #5C687E",
"O@	c #5B677F",
"P@	c #626C87",
"Q@	c #6A7092",
"R@	c #5B677D",
"S@	c #5F6C7F",
"T@	c #505C74",
"U@	c #48546C",
"V@	c #4A5670",
"W@	c #545F7B",
"X@	c #5B6682",
"Y@	c #5A6581",
"Z@	c #52607B",
"`@	c #52607A",
" #	c #58647E",
".#	c #636D88",
"+#	c #636C89",
"@#	c #566376",
"##	c #5C677B",
"$#	c #525D73",
"%#	c #4A546D",
"&#	c #565D79",
"*#	c #586381",
"=#	c #596781",
"-#	c #5D6B85",
";#	c #626E86",
">#	c #626E88",
",#	c #65708E",
"'#	c #6A7390",
")#	c #6C7594",
"  . + @ # $ % & * = - ; > , ' ) ! ~ { ] ^ ^ / { ( _ : < [ } } | ",
"1 2 3 4 5 6 & 7 8 9 0 a b c ) 0 d e f f g h i f ( j k l m n n o ",
"p p q r s t u v w x y y y y y y y y z A B C e D E F h G H I I J ",
"K L M N O v P Q R y S T U V S S U S y W y X e f e C f > Y Z `  .",
"..+.@.@.L #.$.%.&.y *.=.-.U U S =.U S S ;.y >.,.'.A C ).!.!.~.!.",
"{.].N ^./.(._.:.<.y ;.U =.[.U U =.}.U =.=.U y |.|.1.2.3.D e C 2.",
"4.5.6.7.8.9.0.a.y b.U c.=.=.=.=.-.=.[.=.d.=.U y e.f.g.g.f.h.'.C ",
"i.j.k.l.m.n.o.y S p.=.=.=.=.=.q.=.=.=.r.=.s.=.U W t.u.v.>.w.x.y.",
"z.m.A.7.B.C.y S U =.d.=.=.=.=.q.=.=.=.=.=.d.=.r.S y 1.D.E.F.1.G.",
"H.I.J.m.K.L.y S U M.=.r.N.=.=.=.-.=.U =.=.O.=.=.P.y e.e.E.Q.t.>.",
"K.R.S.T.C.U.y S U U U U U =.q.=.V.U W.X.Y.Z.=.=.U V y E.e `.f.|.",
" +.+++7.j.@+y S U U U U U q.=.=.q.Z.#+$+$+#+Z.=.U S y 1.h.>.|.%+",
"A.&+*+=+j.-+W S U =.=.U =.=.=.=.=.#+$+$+;+$+>+p.U P.y z ,+'+)+!+",
"~+{+]+]+^+a.y S U =.d./+#+Z.U Z.#+Z.#+(+_+#+U S U S y :+'.<+G.'.",
"[+}+}+[+|+1+y S 2+N.=.Z.$+#+Z.Z.$+#+#+_+_+#+y y S S y C h a 3+g ",
"a.a.4+1+<.5+y S *.6+U 7+$+$+$+$+8+$+$+9+_+0+Z.P.y y a+A '+b+c+<+",
"d+e+f+g+t.h+F W y i+U =.#+$+$+_+(+_+_+j+_+_+k+l+y h.>.h.G.m+w.%+",
"n+n+o+`.p+z '.q+y S S r+=.#+$+$+_+_+s+_+_+_+#+S y E.t+z |.u+y.'+",
"D.:+z `.p+v+w+x+y+y V S 6+Z.#+$+$+$+$+z+k+#+=.A+f.1.f.g+E.'+G.|.",
"B+C+D+z 2.'.E+ ., F+y G+U U H+#+k+$+k+I+#+=.y y Q.E.E.E.e.J+%+,+",
"K+L+'.M+e N+O+P+J Q+y R+U U U Z.S+T+S+S+Z.*.y y v.e.J+J+J+G.%+1.",
"D.U+V+W+X+{ Y+Z+`+P+y  @U =.=.Z.T+T+T+.@Z.*.S y +@%+@@y.G.G.%+h.",
"#@z ).w+$@%@&@P+*@R+=@$+$+#+=.Z.T+T+.@-@Z.Z.Z.y D.;@@@'+e.%+J+%+",
">@,@'.3+c  .'@H )@y #+_+_+#+U Z.T+T+-@T+!@#+#+S y y.~@e.f.e.G.;@",
"z z '.{@x+]@Z+^@/@y =@8+_+Y.(@!@_@:@:@:@<@[@X.S W J+U+G.}@m+J+f.",
"|@1@D.2@3@c ' 4@5@y U !@6@_@_@_@7@_@:@_@<@U p.y @@%+e.8@@@w.J+1.",
"9@0@~@m+a@b@/ ).w+).y y <@!@c@7@d@e@!@!@f@y y e.y.%+E.e.G.;@%+1.",
"g@h@i@j@k@l@m@n@o@p@y V U U U y y *.U U V y e.L+y.%+E.e.%+G.|.E.",
"q@r@s@t@u@v@w@x@,@y@y@y y y y y y y y y y E.%+;@z@J+e.D.%+J+%+E.",
"A@B@C@D@E@F@G@H@f.I@J@K@L@M@N@O@P@1.Q.u.v.1.|.;@Q@;@J+G.;@;@G.%+",
"R@S@N@T@U@V@W@X@Y@v@Z@`@ #R@N@R@.#D.E.1.E.+#%+J+@@@@@@w.w.@@;@G.",
"@###D@$#%#F@&#v@v@*#I@y@=#-#;#>#J+J+J+,#G.G.G.)+@@'#m+)#)#x.@@G."};
