/* XPM */
static char * moeda_xpm[] = {
"48 32 10 1",
" 	c #F9D97A",
".	c #FFFFFF",
"+	c #F8B800",
"@	c #AC7C00",
"#	c #E6E6E6",
"$	c #9B6500",
"%	c #F8B000",
"&	c #FFC600",
"*	c #F7CF59",
"=	c #F9B300",
".##.##.#..#.##.##.#..#..#.##.#..#..#.##.##.#..#.",
"#..#..#.##.#..#..#.##.#..#..#..#.##.#..#..#.##.#",
"#..#..#.##.#..#..#.##.#..#..#..#.##.#..#..#.##.#",
".##.##.#..#.##.##.#.#       ##..#..#.##.##.#..#.",
"#..#..#.##.#..#..### ******@*###.##.#..#..#.##.#",
"#..#..#.##.#..#..#***********@*#.##.#..#..#.##.#",
".##.##.#..#.##.##*  *+%%%%+*  @@##.#.##.##.#..#.",
"#..#..#.##.#..#.@  *+%@@@@%+*  @@##.#..#..#.##.#",
".##.#..#..#..##@  *+%*    *%+*  @@##.##.#..#..#.",
".##.##.#..#.###@ *+%***  ***%+* @@##.##.##.#..#.",
"#..#..#.##.#.# # *@**++*  *+%@*  @*##..#..#.##.#",
".##.#..#..#..# .#*@**+++* **%@*  @@#.##.#..#..#.",
".##.#..#..#..# ..*@* *+++* **@*  @@#.##.#..#..#.",
"#..#..#.##.#.# ..*@   *+++* *@*  @@##..#..#.##.#",
".##.##.#..#.## ..*@##  *+++**@*  @@#.##.##.#..#.",
"#..#..#.##.#.# ..*@#.#  ++++%@*  @@##..#..#.##.#",
"#..#..#.##.#.# ..*@#...  *++%@*  @@##..#..#.##.#",
".##.##.#..#.##@ .*@#....  *+%@*  @@#.##.##.#..#.",
"#..#..#.##.#.#@  *@#.....  *%@*  @@##..#..#.##.#",
"#..#..#.##.#.#@  *@#.....# **@*  @@##..#..#.##.#",
".##.##.#..#.##@  *@#......# *@*  @@#.##.##.#..#.",
"#..#..#.##.#.# * *% #......#*%* *@ ##..#..#.##.#",
"....#..#..#..##@ *+% #....##  * @@##....#..#..#.",
".##.##.#..#.###@  *+% .... #..  @@##.##.##.#..#.",
"#..#..#.##.#..#.@  *+%@@@@#...#@@##.#..#..#.##.#",
".##.#..#..#..#.#.*  *+++.....#@@...#.##.#..#..#.",
".##.#..#..#..#.###*@*    ..# **##..#.##.#..#..#.",
"#..#..#.##.#..#..### ****  **###.##.#..#..#.##.#",
".##.##.#..#.##.##.#.##########..#..#.##.##.#..#.",
"#..#..#....#..#..#....#..#..#..#....#..#..#....#",
"#..#..#.##.#..#..#.##.##.#..#.##.##.#..#..#.##.#",
".##.##.#..#.##.##.#..#..#.##.#..#..#.##.##.#..#."};
