/* XPM */
static char * 03_xpm[] = {
"32 32 319 2",
"  	c #72749B",
". 	c #7A7CA3",
"+ 	c #8183AA",
"@ 	c #7C7EA5",
"# 	c #6C6F98",
"$ 	c #5C5F88",
"% 	c #555881",
"& 	c #565982",
"* 	c #676C96",
"= 	c #60658F",
"- 	c #5A618B",
"; 	c #5F6690",
"> 	c #6B729E",
", 	c #737AA6",
"' 	c #7279A5",
") 	c #6D74A0",
"! 	c #686F99",
"~ 	c #69709A",
"{ 	c #6B729C",
"] 	c #6C739D",
"^ 	c #6C739F",
"/ 	c #6A719D",
"( 	c #656C9A",
"_ 	c #626997",
": 	c #696F9F",
"< 	c #767CAC",
"[ 	c #797FAF",
"} 	c #7278A8",
"| 	c #7A80B0",
"1 	c #6C6E95",
"2 	c #71739A",
"3 	c #797BA2",
"4 	c #70749A",
"5 	c #5F628B",
"6 	c #62678F",
"7 	c #646993",
"8 	c #676E98",
"9 	c #6D749E",
"0 	c #7178A2",
"a 	c #7077A3",
"b 	c #636A94",
"c 	c #646B95",
"d 	c #656C96",
"e 	c #666D97",
"f 	c #666D99",
"g 	c #656C98",
"h 	c #686F9D",
"i 	c #7379A9",
"j 	c #757BAB",
"k 	c #6E74A4",
"l 	c #747AAA",
"m 	c #66688E",
"n 	c #6F7197",
"o 	c #797BA1",
"p 	c #71759A",
"q 	c #5D6187",
"r 	c #54587E",
"s 	c #575B81",
"t 	c #61668C",
"u 	c #686D95",
"v 	c #6D759C",
"w 	c #6F779E",
"x 	c #6C749B",
"y 	c #000000",
"z 	c #60688F",
"A 	c #616892",
"B 	c #626993",
"C 	c #626995",
"D 	c #6F76A4",
"E 	c #7279A7",
"F 	c #6D74A2",
"G 	c #686A90",
"H 	c #66698C",
"I 	c #6D6F95",
"J 	c #76799C",
"K 	c #6B6F94",
"L 	c #565A7F",
"M 	c #52567B",
"N 	c #5C6085",
"O 	c #666B91",
"P 	c #686D93",
"Q 	c #666E93",
"R 	c #626A8F",
"S 	c #FFD683",
"T 	c #626A91",
"U 	c #636B92",
"V 	c #646B97",
"W 	c #6F76A2",
"X 	c #6E75A1",
"Y 	c #6E75A3",
"Z 	c #7178A4",
"` 	c #717497",
" .	c #6F7293",
"..	c #737699",
"+.	c #747798",
"@.	c #64688B",
"#.	c #53577A",
"$.	c #55597C",
"%.	c #696F93",
"&.	c #646A8E",
"*.	c #FECB68",
"=.	c #B17927",
"-.	c #666E95",
";.	c #656D94",
">.	c #616990",
",.	c #686F9B",
"'.	c #777A9B",
").	c #777A99",
"!.	c #76799A",
"~.	c #6E7190",
"{.	c #5F6484",
"].	c #565B7B",
"^.	c #5D6282",
"/.	c #686C8F",
"(.	c #646A8C",
"_.	c #5F678E",
":.	c #727594",
"<.	c #727693",
"[.	c #6C6F8E",
"}.	c #606481",
"|.	c #5A5F7D",
"1.	c #5D6280",
"2.	c #626785",
"3.	c #636888",
"4.	c #FFB339",
"5.	c #FFAB37",
"6.	c #61698D",
"7.	c #5D658A",
"8.	c #656D92",
"9.	c #61698E",
"0.	c #696D8A",
"a.	c #5F6380",
"b.	c #535774",
"c.	c #565B78",
"d.	c #626784",
"e.	c #636886",
"f.	c #5D6589",
"g.	c #5E668A",
"h.	c #6D759A",
"i.	c #6E769B",
"j.	c #6B7398",
"k.	c #515570",
"l.	c #565A75",
"m.	c #5B5F7A",
"n.	c #60647F",
"o.	c #616683",
"p.	c #606582",
"q.	c #656D91",
"r.	c #646C90",
"s.	c #60688C",
"t.	c #697196",
"u.	c #595D78",
"v.	c #555974",
"w.	c #535772",
"x.	c #5D627F",
"y.	c #666B88",
"z.	c #636B8F",
"A.	c #5F678B",
"B.	c #60688D",
"C.	c #5E627F",
"D.	c #575B78",
"E.	c #525673",
"F.	c #555976",
"G.	c #E5E5E5",
"H.	c #636B90",
"I.	c #646C91",
"J.	c #5D617E",
"K.	c #5C607D",
"L.	c #626683",
"M.	c #686D8A",
"N.	c #FFFFFF",
"O.	c #676F94",
"P.	c #5B5E7D",
"Q.	c #616483",
"R.	c #676A89",
"S.	c #6A6D8C",
"T.	c #686D8B",
"U.	c #646C93",
"V.	c #687097",
"W.	c #697198",
"X.	c #676F96",
"Y.	c #5E6180",
"Z.	c #636685",
"`.	c #686B8A",
" +	c #626787",
".+	c #626586",
"++	c #646788",
"@+	c #636687",
"#+	c #606487",
"$+	c #63678A",
"%+	c #7179A0",
"&+	c #6A7299",
"*+	c #60698A",
"=+	c #616A8B",
"-+	c #5F678C",
";+	c #606B8B",
">+	c #606A8D",
",+	c #5E688C",
"'+	c #5E678E",
")+	c #666E92",
"!+	c #6B7397",
"~+	c #636D90",
"{+	c #626C8F",
"]+	c #606A8E",
"^+	c #687094",
"/+	c #697195",
"(+	c #667093",
"_+	c #656F92",
":+	c #626C90",
"<+	c #606990",
"[+	c #606992",
"}+	c #676F93",
"|+	c #677195",
"1+	c #667094",
"2+	c #656E95",
"3+	c #636C93",
"4+	c #626B94",
"5+	c #636D91",
"6+	c #656F93",
"7+	c #666F96",
"8+	c #666F98",
"9+	c #67709B",
"0+	c #5B648B",
"a+	c #656E97",
"b+	c #69729B",
"c+	c #6C75A0",
"d+	c #6D76A1",
"e+	c #555E85",
"f+	c #646D96",
"g+	c #6B749D",
"h+	c #6F78A3",
"i+	c #7079A4",
"j+	c #6A7297",
"k+	c #5F698D",
"l+	c #646D94",
"m+	c #6C759E",
"n+	c #6B749F",
"o+	c #7078A6",
"p+	c #6E769A",
"q+	c #6F779B",
"r+	c #6D779B",
"s+	c #697299",
"t+	c #6E77A0",
"u+	c #727BA6",
"v+	c #767FAA",
"w+	c #6C7498",
"x+	c #6D7599",
"y+	c #626A8E",
"z+	c #7983A6",
"A+	c #6F799C",
"B+	c #697396",
"C+	c #6C769A",
"D+	c #717AA1",
"E+	c #7079A2",
"F+	c #68719C",
"G+	c #6A7296",
"H+	c #7782A2",
"I+	c #747F9F",
"J+	c #727D9D",
"K+	c #737DA0",
"L+	c #717B9F",
"M+	c #677097",
"N+	c #576087",
"O+	c #4C557C",
"P+	c #5A638C",
"Q+	c #5A638A",
"R+	c #6D7896",
"S+	c #717C9A",
"T+	c #727D9B",
"U+	c #6D7898",
"V+	c #576185",
"W+	c #4D577B",
"X+	c #475175",
"Y+	c #5C658C",
"Z+	c #596387",
"`+	c #586286",
" @	c #5C6689",
".@	c #636E8A",
"+@	c #68738F",
"@@	c #677290",
"#@	c #5B6684",
"$@	c #4E5979",
"%@	c #4B5578",
"&@	c #505A7E",
"*@	c #545E82",
"=@	c #5A6487",
"-@	c #555F82",
";@	c #566181",
">@	c #5F6A86",
",@	c #5E6985",
"'@	c #5C6785",
")@	c #646D8E",
"!@	c #5B6781",
"~@	c #616D87",
"{@	c #4F5A78",
"]@	c #455070",
"^@	c #485373",
"/@	c #545E81",
"(@	c #5B6588",
"_@	c #586285",
":@	c #545F7F",
"<@	c #586381",
"[@	c #5D6884",
"}@	c #666F90",
"|@	c #57617A",
"1@	c #5E6881",
"2@	c #5C6681",
"3@	c #505976",
"4@	c #485170",
"5@	c #4C5576",
"6@	c #545C80",
"7@	c #596386",
"8@	c #5C6787",
"9@	c #616C8A",
"0@	c #646F8D",
"a@	c #65708E",
"b@	c #687095",
"c@	c #70789C",
"d@	c #6C7499",
"  . + @ # $ % & * = - ; > , ' ) ! ~ { ] ^ ^ / / ( _ : < [ } } | ",
"1 2 3 @ 4 5 & & 6 7 8 9 0 a ^ ! b c d d e f g g ( _ h i j k k l ",
"m m n o p q r s t u v w x y y y y y y y z A B b g C f D E F F E ",
"G H I J K L M N O P Q R y S S S S S S S y T U d c A V > W X Y Z ",
"`  ...+.@.#.$.@.%.&.y y S *.*.*.*.*.*.=.*.y y -.;.>.A e ~ ~ ,.~ ",
"'.).!.~.{.].^./.(.y *.*.*.*.*.*.*.*.*.*.*.=.*.y Q R _.z T U A _.",
":.<.[.}.|.1.2.3.y *.S S *.4.5.5.5.5.4.*.S S =.=.y 6.7.7.R 8.;.9.",
"0.0.a.b.c.d.e.y =.S S *.4.5.=.=.=.=.5.4.*.S S =.=.y f.g.Q h.i.j.",
"k.l.m.n.o.p.y =.S S *.4.5.*.S S S S *.5.4.*.S S =.=.y q.r.s.R t.",
"u.v.w.l.x.y.y =.S *.4.5.*.*.*.S S *.*.*.5.4.*.S =.=.y q.z.A.B.8.",
"C.D.E.F.p.y S G.S *.=.*.*.4.4.*.S S *.4.5.=.*.S S =.*.y H.B.9.I.",
"J.K.J.L.M.y S N.G.*.=.*.*.4.4.4.*.S *.*.5.=.*.S S =.=.y H.8.Q O.",
"P.Q.R.S.T.y S N.N.*.=.*.S *.4.4.4.*.S *.*.=.*.S S =.=.y U.V.W.X.",
"Y.Z.`.R. +y S N.N.*.=.S S S *.4.4.4.*.S *.=.*.S S =.=.y ;.W.W.;.",
".+++++@+#+y S N.N.*.=.G.G.S S *.4.4.4.*.*.=.*.S S =.=.y e 9 ] e ",
"3.3.3.$+(.y S N.N.*.=.G.N.G.S S 4.4.4.4.5.=.*.S S =.=.y V.%+%+&+",
"*+=+=+s.-+y S N.N.*.=.G.N.N.N.S S *.4.4.5.=.*.S S =.=.y t.i.h.O.",
";+;+>+,+'+y =.S N.*.=.G.N.N.N.N.S S *.4.5.=.*.S S =.=.y )+!+!+O.",
"~+{+]+,+'+y =.S S *.=.G.N.N.N.N.N.S S *.5.=.*.S S =.=.y z.^+/+Q ",
"(+_+:+<+[+y =.S S *.=.G.N.N.N.N.N.G.S *.*.=.*.S S =.=.y r.^+}+I.",
"|+1+2+3+4+y =.S S *.=.G.N.N.N.N.N.N.G.S *.=.*.S S =.=.y ^+/+}+R ",
"5+6+7+8+9+y S *.S *.5.S G.N.N.N.N.N.N.G.*.5.*.S *.=.S y /+/+}+H.",
"0+<+a+b+c+d+y =.S *.4.5.S G.N.N.N.N.G.G.S S *.S =.=.y ^+q.}+^+O.",
"e+0+f+g+h+i+y =.S S *.4.5.S N.N.N.N.S G.N.N.S S =.=.y r.6.q./+j+",
"]+k+l+m+d+n+o+y =.S S *.4.5.=.=.=.=.G.N.N.N.G.=.=.y )+/+p+q+^+9.",
"r+1+5+s+t+h+u+v+y *.S S *.4.4.4.N.N.N.N.N.G.=.=.y }+q.}+w+x+^+y+",
"z+A+B+C+D+E+b+a+F+y *.=.*.S S S S N.N.G.S *.*.y !+}+z.q./+G+}+y+",
"H+I+J+K+L+M+N+O+P+Q+y y S *.*.*.*.S S *.*.y y }+!+}+z.r.}+/+)+z.",
"R+S+T+U+~+V+W+X+Y+Z+`+ @y y y y y y y y y z.}+G+!+^+q.q.}+^+}+q.",
".@+@@@#@$@%@&@*@k+=@-@;@#@>@,@'@)@y+A.f.g.y+)+G+!+G+^+/+G+G+/+}+",
"!@~@,@{@]@^@/@ @(@_@/@:@<@[@,@[@}@r.z.y+y+r.}+^+w+w+w+x+x+w+G+/+",
"|@1@2@3@4@5@6@_@_@=@=@7@8@9@0@a@^+b@b@/+/+/+/+/+w+x+q+c@c@i.d@t."};
