/* XPM */
static char * EmptySpace_xpm[] = {
"32 32 437 2",
"  	c #707296",
". 	c #77799D",
"+ 	c #7E7FA3",
"@ 	c #797B9F",
"# 	c #6B6D93",
"$ 	c #5C5F84",
"% 	c #56597E",
"& 	c #575A7F",
"* 	c #666B91",
"= 	c #60648A",
"- 	c #5B6187",
"; 	c #5F658B",
"> 	c #6A7098",
", 	c #7177A0",
"' 	c #70769F",
") 	c #6C729A",
"! 	c #676D94",
"~ 	c #686E95",
"{ 	c #6A7096",
"] 	c #6B7197",
"^ 	c #6B7199",
"/ 	c #696F97",
"( 	c #646B95",
"_ 	c #626892",
": 	c #686D99",
"< 	c #7479A5",
"[ 	c #767CA8",
"} 	c #7075A2",
"| 	c #777DA9",
"1 	c #6B6C90",
"2 	c #6F7195",
"3 	c #76789C",
"4 	c #6E7295",
"5 	c #5F6287",
"6 	c #62668A",
"7 	c #64688E",
"8 	c #666C93",
"9 	c #6C7298",
"0 	c #6F759C",
"a 	c #6E759D",
"b 	c #63698F",
"c 	c #646A90",
"d 	c #646B91",
"e 	c #656C92",
"f 	c #656C94",
"g 	c #646B93",
"h 	c #676D97",
"i 	c #7176A2",
"j 	c #7378A4",
"k 	c #6C729E",
"l 	c #7277A3",
"m 	c #65678A",
"n 	c #6D6F92",
"o 	c #76789B",
"p 	c #6F7395",
"q 	c #5D6183",
"r 	c #56597B",
"s 	c #585C7E",
"t 	c #616588",
"u 	c #676C90",
"v 	c #6C7396",
"w 	c #6D7598",
"x 	c #6B7296",
"y 	c #60668C",
"z 	c #60678A",
"A 	c #61678D",
"B 	c #62688E",
"C 	c #626890",
"D 	c #6D749E",
"E 	c #7076A1",
"F 	c #6C729C",
"G 	c #67698B",
"H 	c #656888",
"I 	c #6C6D90",
"J 	c #747696",
"K 	c #6A6D8F",
"L 	c #575B7C",
"M 	c #545778",
"N 	c #5C6081",
"O 	c #656A8C",
"P 	c #676C8E",
"Q 	c #656C8E",
"R 	c #62698A",
"S 	c #5D6488",
"T 	c #62698C",
"U 	c #666D91",
"V 	c #61688B",
"W 	c #606789",
"X 	c #5F6688",
"Y 	c #636A8D",
"Z 	c #646A92",
"` 	c #6D749C",
" .	c #6C739B",
"..	c #6C739D",
"+.	c #6F759E",
"@.	c #6F7292",
"#.	c #6D708E",
"$.	c #717494",
"%.	c #727593",
"&.	c #646787",
"*.	c #555877",
"=.	c #565A79",
"-.	c #686D8E",
";.	c #64698A",
">.	c #5C6484",
",.	c #596080",
"'.	c #5A6182",
").	c #5D6486",
"!.	c #61688A",
"~.	c #646C8D",
"{.	c #616889",
"].	c #606788",
"^.	c #636A8B",
"/.	c #656C90",
"(.	c #646C8F",
"_.	c #676D96",
":.	c #757796",
"<.	c #757794",
"[.	c #747695",
"}.	c #6C6F8B",
"|.	c #5F6480",
"1.	c #575C78",
"2.	c #5D627F",
"3.	c #676B8A",
"4.	c #646988",
"5.	c #606584",
"6.	c #5C6481",
"7.	c #646B8B",
"8.	c #5F6687",
"9.	c #606886",
"0.	c #636A8A",
"a.	c #646C8C",
"b.	c #5F668A",
"c.	c #70738F",
"d.	c #70748E",
"e.	c #6B6D8A",
"f.	c #60647E",
"g.	c #5B5F7A",
"h.	c #5D627D",
"i.	c #626681",
"j.	c #636784",
"k.	c #616683",
"l.	c #5F6481",
"m.	c #5D6581",
"n.	c #646C8A",
"o.	c #616987",
"p.	c #5D6583",
"q.	c #616985",
"r.	c #626A88",
"s.	c #656D8B",
"t.	c #656C8D",
"u.	c #686C86",
"v.	c #5F637D",
"w.	c #555872",
"x.	c #575C75",
"y.	c #626680",
"z.	c #636782",
"A.	c #626784",
"B.	c #5F6785",
"C.	c #5F6783",
"D.	c #636B87",
"E.	c #646C89",
"F.	c #676F8B",
"G.	c #68708E",
"H.	c #676F8D",
"I.	c #5D6485",
"J.	c #5E6586",
"K.	c #6C7395",
"L.	c #6C7496",
"M.	c #6A7193",
"N.	c #53566E",
"O.	c #575B73",
"P.	c #5C5F77",
"Q.	c #60647C",
"R.	c #61657F",
"S.	c #60647F",
"T.	c #5F647E",
"U.	c #5E637D",
"V.	c #5B617B",
"W.	c #5F657F",
"X.	c #5C647F",
"Y.	c #5C6480",
"Z.	c #626A86",
"`.	c #5B637F",
" +	c #626A84",
".+	c #666E8A",
"++	c #69718D",
"@+	c #6A7290",
"#+	c #666E8C",
"$+	c #636B89",
"%+	c #686F91",
"&+	c #5A5D75",
"*+	c #565A72",
"=+	c #555870",
"-+	c #5D627C",
";+	c #656A84",
">+	c #6A6E89",
",+	c #6B6F8A",
"'+	c #5E647F",
")+	c #616781",
"!+	c #5E6682",
"~+	c #656D8A",
"{+	c #646C86",
"]+	c #646C88",
"^+	c #6A728E",
"/+	c #6B7391",
"(+	c #69718F",
"_+	c #5E627C",
":+	c #585C75",
"<+	c #545771",
"[+	c #565A74",
"}+	c #6F748F",
"|+	c #636885",
"1+	c #68708C",
"2+	c #686F90",
"3+	c #646B8C",
"4+	c #5D617B",
"5+	c #5C607A",
"6+	c #62657F",
"7+	c #676C86",
"8+	c #6A6E8A",
"9+	c #696D89",
"0+	c #656B88",
"a+	c #646986",
"b+	c #5A627E",
"c+	c #59617D",
"d+	c #5E6684",
"e+	c #666D8F",
"f+	c #5C5E7A",
"g+	c #61647F",
"h+	c #666985",
"i+	c #696C88",
"j+	c #676C87",
"k+	c #666B88",
"l+	c #676C89",
"m+	c #666C8A",
"n+	c #58607E",
"o+	c #565E7C",
"p+	c #666D8E",
"q+	c #676E8F",
"r+	c #646B8E",
"s+	c #676E92",
"t+	c #686F93",
"u+	c #5E617D",
"v+	c #636581",
"w+	c #676A86",
"x+	c #626683",
"y+	c #686C8A",
"z+	c #6E7390",
"A+	c #686D8C",
"B+	c #676E90",
"C+	c #626482",
"D+	c #646684",
"E+	c #636583",
"F+	c #606483",
"G+	c #636686",
"H+	c #686C8B",
"I+	c #6D7191",
"J+	c #696E8F",
"K+	c #656B8B",
"L+	c #575E7F",
"M+	c #5E6587",
"N+	c #636889",
"O+	c #6B6F92",
"P+	c #596081",
"Q+	c #6F769A",
"R+	c #697094",
"S+	c #626A8D",
"T+	c #5C6487",
"U+	c #5C6586",
"V+	c #5C6485",
"W+	c #586180",
"X+	c #5D6686",
"Y+	c #677090",
"Z+	c #606A87",
"`+	c #606989",
" @	c #5E6788",
".@	c #5E668A",
"+@	c #60688B",
"@@	c #646C91",
"#@	c #676F95",
"$@	c #6D759B",
"%@	c #687096",
"&@	c #636B90",
"*@	c #5F678A",
"=@	c #5B6483",
"-@	c #5F6888",
";@	c #66708D",
">@	c #6A7192",
",@	c #636C8B",
"'@	c #626B8A",
")@	c #60698A",
"!@	c #626A8F",
"~@	c #676F96",
"{@	c #6C749B",
"]@	c #7078A0",
"^@	c #70789E",
"/@	c #6B7398",
"(@	c #61698C",
"_@	c #5E6787",
":@	c #666F8F",
"<@	c #656E8E",
"[@	c #646D8D",
"}@	c #626B8B",
"|@	c #60688D",
"1@	c #6A7299",
"2@	c #6E769E",
"3@	c #747CA3",
"4@	c #61698E",
"5@	c #5C6488",
"6@	c #697293",
"7@	c #687191",
"8@	c #666F90",
"9@	c #656E8F",
"0@	c #646C90",
"a@	c #636B8E",
"b@	c #656D95",
"c@	c #6A719B",
"d@	c #6E75A0",
"e@	c #7077A2",
"f@	c #727AA2",
"g@	c #687192",
"h@	c #6D7697",
"i@	c #6B7495",
"j@	c #636C8C",
"k@	c #646D8E",
"l@	c #656D91",
"m@	c #656D93",
"n@	c #666E96",
"o@	c #687097",
"p@	c #6B729C",
"q@	c #6D759F",
"r@	c #737AA4",
"s@	c #626A91",
"t@	c #646C92",
"u@	c #6C7598",
"v@	c #6F779B",
"w@	c #6E7798",
"x@	c #6B7293",
"y@	c #6B739A",
"z@	c #6C749E",
"A@	c #7980AB",
"B@	c #636B92",
"C@	c #646C94",
"D@	c #70789C",
"E@	c #70799A",
"F@	c #697091",
"G@	c #565E81",
"H@	c #6A7297",
"I@	c #6D759D",
"J@	c #6F76A1",
"K@	c #7F87B1",
"L@	c #616990",
"M@	c #6F779D",
"N@	c #717A9B",
"O@	c #6C7495",
"P@	c #697092",
"Q@	c #5F6889",
"R@	c #757DA7",
"S@	c #7B82AD",
"T@	c #6C759C",
"U@	c #777FA5",
"V@	c #747CA0",
"W@	c #6C7497",
"X@	c #6D7596",
"Y@	c #6C7596",
"Z@	c #687094",
"`@	c #6C759A",
" #	c #767EA8",
".#	c #697198",
"+#	c #737B9F",
"@#	c #616A8A",
"##	c #6C7394",
"$#	c #767FA0",
"%#	c #6D7696",
"&#	c #6E769C",
"*#	c #5C6585",
"=#	c #565F7F",
"-#	c #757F9C",
";#	c #727C99",
">#	c #707A97",
",#	c #717A9A",
"'#	c #6F7899",
")#	c #666E92",
"!#	c #586083",
"~#	c #4F5679",
"{#	c #5B6388",
"]#	c #5B6386",
"^#	c #58627F",
"/#	c #565F7C",
"(#	c #57617E",
"_#	c #6C7591",
":#	c #6F7995",
"<#	c #707A96",
"[#	c #6C7593",
"}#	c #586181",
"|#	c #505878",
"1#	c #4A5373",
"2#	c #5A6383",
"3#	c #596282",
"4#	c #5F6986",
"5#	c #5E6883",
"6#	c #5C6681",
"7#	c #5D6782",
"8#	c #636C86",
"9#	c #67718A",
"0#	c #66708B",
"a#	c #5C6580",
"b#	c #505A76",
"c#	c #4E5675",
"d#	c #525B7B",
"e#	c #565E7F",
"f#	c #5F6982",
"g#	c #5E6881",
"h#	c #5C667E",
"i#	c #616C83",
"j#	c #515B75",
"k#	c #49526E",
"l#	c #4B5571",
"m#	c #565E7E",
"n#	c #596281",
"o#	c #59637E",
"p#	c #5D6780",
"q#	c #586177",
"r#	c #5E677E",
"s#	c #5C657E",
"t#	c #525A74",
"u#	c #4B536E",
"v#	c #4F5674",
"w#	c #565C7D",
"x#	c #5A6382",
"y#	c #5C6683",
"z#	c #616B86",
"A#	c #646D89",
"B#	c #646E8A",
"C#	c #6E7596",
"D#	c #6B7294",
"  . + @ # $ % & * = - ; > , ' ) ! ~ { ] ^ ^ / / ( _ : < [ } } | ",
"1 2 3 @ 4 5 & & 6 7 8 9 0 a ^ ! b c d d e f g g ( _ h i j k k l ",
"m m n o p q r s t u v w x 8 d d y z z z z A B b g C f D E F F E ",
"G H I J K L M N O P Q R S S T U V W z X z T Y d c A Z > `  ...+.",
"@.#.$.%.&.*.=.&.-.;.>.,.'.).!.~.R {.W ].!.^.~./.(.V A e ~ ~ _.~ ",
":.<.[.}.|.1.2.3.4.5.6.>.{.7.R 8.].9.].{.R 0.a.Q Q R b.z T Y A b.",
"c.d.e.f.g.h.i.j.k.l.m.9.n.n.o.p.9.q.r.n.n.s.s.t.a.{.).).R ~.(.!.",
"u.u.v.w.x.y.z.g.A.k.m.m.B.9.9.C.q.D.E.F.G.G.G.H.R ].I.J.Q K.L.M.",
"N.O.P.Q.R.S.T.U.V.W.X.Y.Z.m.`.D.D. +q.D..+++@+@+#+$+R a.7.].R %+",
"&+*+=+O.-+;+>+,+'+)+X.Y.Z.!+X.E.~+{+]+E.F.^+/+@+(+n.7.a.0.8.W ~.",
"_+:+<+[+S.>+}+}+A.|+X.X.o.B.p.F.1+.+~+.+(+/+/+@+2+a.0.0.^.W !.3+",
"4+5+4+6+7+8+8+9+0+a+b+c+9.d+d+G.(+F..+.+G.@+(+G.7.{.].!.^.~.Q e+",
"f+g+h+i+j+k+k+l+m+4.n+o+J.I.I.H.G.#+n.s.p+q+q+p+3+R W z r+s+t+U ",
"u+v+w+h+x+j.y+z+A+4.n+o+J.J.I.t.p+n.n.n.t.p+p+t.B+Q Y V (.t+t+(.",
"C+D+D+E+F+G+H+I+J+K+,.L+W W M+t.t.7.0.7.Q e+e+e+s+s+c A e 9 ] e ",
"j.j.j.G+4.;.;.N+O+~.'.P+R R X t.t.7.0.7.Q B+B+B+~.(.Y V s+Q+Q+R+",
"9.o.o.].X X T r+v S+T+U+V+W+X+Y+q+a.{.{.R a.t.t.{.^.3+~.%+L.K.e+",
"Z+Z+`+ @.@+@@@#@$@%@&@*@V+=@-@;@t.7.{.{.R 7.a.7.{.0.R {.t.>@>@e+",
",@'@)@ @.@!@~@{@]@^@/@(@V+_@a.:@a.0.{.{.R 0.0.R {.R {.].0.q+2+Q ",
"<@[@}@+@|@@@1@2@]@3@2@4@5@~.6@7@7.R {.{.R 0.R ].8.0.7.0.7.q+p+3+",
"8@9@0@a@!@b@c@d@e@f@{@4@*@g@h@i@a.0.{.].{.R {.].J.7.q+q+q+2+p+R ",
"j@k@l@m@n@o@p@q@r@d@~@s@t@u@v@w@q+a.{.8.].R R R ].p+x@>@2+2+p+^.",
"T++@t@%@y@{@z@d@A@z@B@C@/@v@D@E@>@p+{.8.8.R 7.a.7.F@x@q+a.p+q+e+",
"G@T+@@H@I@2@J@J@K@q@L@n@M@D@v@N@O@q+R J.8.R a.t.p+>@F@7.{.a.2+P@",
")@Q@(./@{@1@d@R@S@c@s@T@U@V@W@g@>@p+{.I.I.R q+x@x@q+t.2+O@X@q+!.",
"Y@9@j@Z@`@I@]@3@ #T@.#^@+#i@j@@#7.R 8.I.I.].7.p+x@p+a.p+x@##q+R ",
"$#%#7@i@v@&#%@t@~@t@#@W@g@*#=#W+8.J.J.J.8.{.0.7.>@p+0.a.2+F@p+R ",
"-#;#>#,#'#)#!#~#{#]#.@j@`+^#/#(#].8.J.8.].0.a.p+>@p+0.7.p+2+t.0.",
"_#:#<#[#,@}#|#1#5@2#3#*#4#5#6#7#$+{.J.I.8.0.p+F@>@q+a.a.p+q+p+a.",
"8#9#0#a#b#c#d#e#Q@=@=#(#a#f#g#6#n.R 8.I.J.R t.F@>@F@q+2+F@F@2+p+",
"h#i#g#j#k#l#m#*#>.n#m#/#o#p#g#p#s.7.0.R R 7.p+q+x@x@x@####x@F@2+",
"q#r#s#t#u#v#w#n#n#=@=@x#y#z#A#B#q+B+B+2+2+2+2+2+x@##X@C#C#L.D#%+"};
