/* XPM */
static char *c259bd989f3543da8eabd436805c26dc2gTnoyIorsgsbcJn[] = {
/* columns rows colors chars-per-pixel */
"16 16 6 1 ",
"  c None",
". c black",
"X c #663931",
"o c #D18C47",
"O c #D9A066",
"+ c #DDD540",
/* pixels */
"                ",
"                ",
"                ",
"                ",
"                ",
"                ",
"       ...      ",
"      .XoO.     ",
"     .ooX.      ",
"   ..+.OOO..    ",
"  .+..oOOo.+.   ",
" .+.+..oo+..    ",
"  ........      ",
"                ",
"                ",
"                "
};
