/* XPM */
static char * Door_xpm[] = {
"34 32 121 2",
"  	c None",
". 	c #677598",
"+ 	c #5B6685",
"@ 	c #3D3F52",
"# 	c #21110D",
"$ 	c #1F0C03",
"% 	c #677699",
"& 	c #565B74",
"* 	c #4B424B",
"= 	c #442D1E",
"- 	c #442C1B",
"; 	c #3E4053",
"> 	c #4B424C",
", 	c #5E463C",
"' 	c #674830",
") 	c #3D4054",
"! 	c #442E1E",
"~ 	c #674931",
"{ 	c #755338",
"] 	c #765438",
"^ 	c #1F0F0C",
"/ 	c #765338",
"( 	c #765439",
"_ 	c #1D0A01",
": 	c #402A1C",
"< 	c #60432D",
"[ 	c #6C4C33",
"} 	c #6A4B33",
"| 	c #694A32",
"1 	c #382418",
"2 	c #513725",
"3 	c #583D29",
"4 	c #513826",
"5 	c #4C3424",
"6 	c #20100C",
"7 	c #533927",
"8 	c #422D1F",
"9 	c #36251A",
"0 	c #3A271B",
"a 	c #3D291D",
"b 	c #3A271C",
"c 	c #36241A",
"d 	c #3B271C",
"e 	c #402B1D",
"f 	c #61442E",
"g 	c #483222",
"h 	c #432D1F",
"i 	c #493122",
"j 	c #442E20",
"k 	c #452E1F",
"l 	c #674831",
"m 	c #4D3524",
"n 	c #503625",
"o 	c #4B3323",
"p 	c #4A3222",
"q 	c #3D291C",
"r 	c #4F3524",
"s 	c #4C3323",
"t 	c #4E3524",
"u 	c #4D3223",
"v 	c #4D3324",
"w 	c #462F21",
"x 	c #3C281C",
"y 	c #654F32",
"z 	c #826C42",
"A 	c #8D7344",
"B 	c #896638",
"C 	c #77522B",
"D 	c #533920",
"E 	c #684932",
"F 	c #B8A161",
"G 	c #CCAC64",
"H 	c #C6964F",
"I 	c #AA7737",
"J 	c #704D25",
"K 	c #674932",
"L 	c #4C3223",
"M 	c #E4BA68",
"N 	c #DEA754",
"O 	c #C0873D",
"P 	c #7E5629",
"Q 	c #664831",
"R 	c #DC9F4B",
"S 	c #7E5729",
"T 	c #4E3425",
"U 	c #7A542D",
"V 	c #AB7838",
"W 	c #A87636",
"X 	c #704D26",
"Y 	c #4F3625",
"Z 	c #5E4026",
"` 	c #734F27",
" .	c #6F4D26",
"..	c #4F361E",
"+.	c #4E3424",
"@.	c #493123",
"#.	c #462F22",
"$.	c #412C1F",
"%.	c #39271B",
"&.	c #513625",
"*.	c #3D281B",
"=.	c #593E29",
"-.	c #5A3F2A",
";.	c #422D1E",
">.	c #342217",
",.	c #3E291C",
"'.	c #3F2A1C",
").	c #2B1A11",
"!.	c #372517",
"~.	c #362416",
"{.	c #26180F",
"].	c #1D110A",
"^.	c #24160D",
"/.	c #28190F",
"(.	c #1C110A",
"_.	c #1B0D0A",
":.	c #180B08",
"<.	c #0C0403",
"[.	c #000000",
"}.	c #0D0503",
"|.	c #0A0303",
". + @ # $ # # # # # # # # # # # # # # # # # # # # # # $ # @ + % % + ",
"+ & * = - = = = = = = = = = = = = = = = = = = = = = = - = * & + + & ",
"; > , ' ' ' ' ' ' ' ' ' ' ' ' ' ' ' ' ' ' ' ' ' ' ' ' ' ' , > ) ) > ",
"# ! ~ { ] { { { { { { { { { { { { { { { { { { { { { { ] { ~ ! ^ ^ ! ",
"$ - ' / ( / / / / / / / / / / / / / / / / / / / / / / ( / ' - _ _ - ",
"# : < [ } | | | | | | | | | | | | | | | | | | | | | | } [ < : ^ ^ : ",
"# 1 2 3 4 5 5 5 5 5 5 5 5 5 5 5 5 5 5 5 5 5 5 5 5 5 5 4 3 2 1 6 6 1 ",
"# 1 2 7 8 9 0 a a b c c b a a a a a a d 9 9 d a a 0 9 8 7 2 1 6 6 1 ",
"# e < f g 0 h i i j 0 0 j i i i i i i j 0 0 j i i h 0 g f < e ^ ^ e ",
"# k l | m a i n n o 8 8 o n n n n n n p q q p n n i a m | l k ^ ^ k ",
"# k ~ | m a i n n r s s r n n n n n n p a a p n n i a m | ~ k ^ ^ k ",
"# k l | m a i n n n n n n n n n n n n o 8 8 o n n i a m | l k ^ ^ k ",
"# k l | m a i n n n n n n n n n n n n t s s t n n i a m | l k ^ ^ k ",
"# k l | m a i n n n n n n n n n n n n n n r u u v w x m | l k ^ ^ k ",
"# k l | m a i n n n n n n n n n n n n n n n n n n i a m | l k ^ ^ k ",
"# k l | m a i n n n n n n n n n n n n r n y z A B C D m E l k ^ ^ k ",
"# k l | m a i n n n n n n n n n n n n u n z F G H I J m K l k ^ ^ k ",
"# k l | m a i n n n n n n n n n n n n L n A G M N O P m Q l k ^ ^ k ",
"# k l | m a i n n n n n n n n n n n n v n B H N R O S m Q l k ^ ^ k ",
"# k l | m a i n n n n n n n n n n n n T n U V O O W X m K l k ^ ^ k ",
"# k l | m a i n n n n n n n n n n n n Y n Z ` P S  ...m E l k ^ ^ k ",
"# k l | m a i n n t s s t n n n n n n n n s 8 a q 0 9 m | l k ^ ^ k ",
"# k l | m a i n n o 8 8 o n n n n n n n n +.@.#.#.$.%.m | l k ^ ^ k ",
"# k l | m a i n n p a a p n n n n n n n n n n n n i a m | l k ^ ^ k ",
"# k l | m a i n n p q q p n n n n n n n n n n n n i a m | l k ^ ^ k ",
"# k ~ | m a i &.&.p a a p n &.n n n n r s s r &.n i a m | ~ k ^ ^ k ",
"# k l | m a i n n p a a p n n n n n n o 8 8 o n n i a m | l k ^ ^ k ",
"# *.=.-.;.>.,.k k '.>.>.'.k k k k k k '.>.>.'.k k ,.>.;.-.=.*.6 6 *.",
"# ).!.~.{.].^././.^.].].^././././././.^.(.(.^././.^.].{.~.!.).# # ).",
"_.:.<.[.[.[.[.[.[.[.[.[.[.[.[.[.[.[.[.[.[.[.[.[.[.[.[.[.[.<.:._._.:.",
"}.|.                                                        |.}.}.|.",
"[.[.                                                        [.[.[.[."};
