/* XPM */
static char * 05_xpm[] = {
"32 32 342 2",
"  	c #72749B",
". 	c #7A7CA3",
"+ 	c #8183AA",
"@ 	c #7C7EA5",
"# 	c #6C6F98",
"$ 	c #5C5F88",
"% 	c #555881",
"& 	c #565982",
"* 	c #676C96",
"= 	c #60658F",
"- 	c #5A618B",
"; 	c #5F6690",
"> 	c #6B729E",
", 	c #737AA6",
"' 	c #7279A5",
") 	c #6D74A0",
"! 	c #686F99",
"~ 	c #69709A",
"{ 	c #6B729C",
"] 	c #6C739D",
"^ 	c #6C739F",
"/ 	c #6A719D",
"( 	c #656C9A",
"_ 	c #626997",
": 	c #696F9F",
"< 	c #767CAC",
"[ 	c #797FAF",
"} 	c #7278A8",
"| 	c #7A80B0",
"1 	c #6C6E95",
"2 	c #71739A",
"3 	c #797BA2",
"4 	c #70749A",
"5 	c #5F628B",
"6 	c #62678F",
"7 	c #646993",
"8 	c #676E98",
"9 	c #6D749E",
"0 	c #7178A2",
"a 	c #7077A3",
"b 	c #636A94",
"c 	c #646B95",
"d 	c #656C96",
"e 	c #666D97",
"f 	c #666D99",
"g 	c #656C98",
"h 	c #686F9D",
"i 	c #7379A9",
"j 	c #757BAB",
"k 	c #6E74A4",
"l 	c #747AAA",
"m 	c #66688E",
"n 	c #6F7197",
"o 	c #797BA1",
"p 	c #71759A",
"q 	c #5D6187",
"r 	c #54587E",
"s 	c #575B81",
"t 	c #61668C",
"u 	c #686D95",
"v 	c #6D759C",
"w 	c #6F779E",
"x 	c #6C749B",
"y 	c #606791",
"z 	c #60688F",
"A 	c #616892",
"B 	c #626993",
"C 	c #626995",
"D 	c #6F76A4",
"E 	c #7279A7",
"F 	c #6D74A2",
"G 	c #686A90",
"H 	c #66698C",
"I 	c #6D6F95",
"J 	c #76799C",
"K 	c #6B6F94",
"L 	c #565A7F",
"M 	c #52567B",
"N 	c #5C6085",
"O 	c #666B91",
"P 	c #686D93",
"Q 	c #666E93",
"R 	c #626A8F",
"S 	c #5D658C",
"T 	c #626A91",
"U 	c #676F96",
"V 	c #616990",
"W 	c #60688D",
"X 	c #5F678C",
"Y 	c #636B92",
"Z 	c #646B97",
"` 	c #6F76A2",
" .	c #6E75A1",
"..	c #6E75A3",
"+.	c #7178A4",
"@.	c #717497",
"#.	c #6F7293",
"$.	c #737699",
"%.	c #747798",
"&.	c #64688B",
"*.	c #53577A",
"=.	c #55597C",
"-.	c #696F93",
";.	c #646A8E",
">.	c #5C6488",
",.	c #586084",
"'.	c #596186",
").	c #5D658A",
"!.	c #61698E",
"~.	c #656D92",
"{.	c #61698D",
"].	c #60688C",
"^.	c #636B90",
"/.	c #666E95",
"(.	c #656D94",
"_.	c #686F9B",
":.	c #777A9B",
"<.	c #777A99",
"[.	c #76799A",
"}.	c #6E7190",
"|.	c #5F6484",
"1.	c #565B7B",
"2.	c #5D6282",
"3.	c #686C8F",
"4.	c #646A8C",
"5.	c #606688",
"6.	c #5B6485",
"7.	c #646C90",
"8.	c #626A8E",
"9.	c #5F678B",
"0.	c #60698A",
"a.	c #636B8F",
"b.	c #656D91",
"c.	c #5F678E",
"d.	c #727594",
"e.	c #727693",
"f.	c #6C6F8E",
"g.	c #606481",
"h.	c #5A5F7D",
"i.	c #5D6280",
"j.	c #626785",
"k.	c #636888",
"l.	c #616787",
"m.	c #5F6585",
"n.	c #000000",
"o.	c #666F90",
"p.	c #666E92",
"q.	c #696D8A",
"r.	c #5F6380",
"s.	c #535774",
"t.	c #565B78",
"u.	c #626784",
"v.	c #636886",
"w.	c #626888",
"x.	c #15361A",
"y.	c #193E1E",
"z.	c #1C4521",
"A.	c #1D4823",
"B.	c #697293",
"C.	c #687192",
"D.	c #5D6589",
"E.	c #5E668A",
"F.	c #6D759A",
"G.	c #6E769B",
"H.	c #6B7398",
"I.	c #515570",
"J.	c #565A75",
"K.	c #5B5F7A",
"L.	c #60647F",
"M.	c #616683",
"N.	c #606582",
"O.	c #15371A",
"P.	c #26572C",
"Q.	c #2E6735",
"R.	c #33723B",
"S.	c #35773E",
"T.	c #697196",
"U.	c #595D78",
"V.	c #555974",
"W.	c #535772",
"X.	c #5D627F",
"Y.	c #666B88",
"Z.	c #16381B",
"`.	c #17391B",
" +	c #224F28",
".+	c #306B38",
"++	c #387C41",
"@+	c #3C8546",
"#+	c #3E8948",
"$+	c #5E627F",
"%+	c #575B78",
"&+	c #525673",
"*+	c #555976",
"=+	c #16371A",
"-+	c #26562C",
";+	c #2B6032",
">+	c #2B6132",
",+	c #3E8848",
"'+	c #3E8A48",
")+	c #646C91",
"!+	c #5D617E",
"~+	c #5C607D",
"{+	c #626683",
"]+	c #36773E",
"^+	c #387B41",
"/+	c #3C8445",
"(+	c #36783F",
"_+	c #36773F",
":+	c #676F94",
"<+	c #5B5E7D",
"[+	c #616483",
"}+	c #3C8345",
"|+	c #3D8847",
"1+	c #697198",
"2+	c #5E6180",
"3+	c #636685",
"4+	c #418C4B",
"5+	c #479351",
"6+	c #4A9754",
"7+	c #479451",
"8+	c #418D4B",
"9+	c #54A45F",
"0+	c #5BAD65",
"a+	c #54A45E",
"b+	c #2E6736",
"c+	c #51A15C",
"d+	c #5DB068",
"e+	c #61B56B",
"f+	c #5DB067",
"g+	c #5AAC65",
"h+	c #5AAB64",
"i+	c #53A15D",
"j+	c #458F4F",
"k+	c #3D8546",
"l+	c #3A8144",
"m+	c #377B40",
"n+	c #499453",
"o+	c #478F50",
"p+	c #42874B",
"q+	c #3C8045",
"r+	c #397C41",
"s+	c #397C42",
"t+	c #33713B",
"u+	c #27592D",
"v+	c #1D4722",
"w+	c #1D4723",
"x+	c #295F30",
"y+	c #3D8747",
"z+	c #3B8144",
"A+	c #37773F",
"B+	c #35733D",
"C+	c #316C38",
"D+	c #2F6736",
"E+	c #37783F",
"F+	c #193D1D",
"G+	c #33733C",
"H+	c #3D8646",
"I+	c #3B8044",
"J+	c #387A40",
"K+	c #316B38",
"L+	c #235129",
"M+	c #1A3F1F",
"N+	c #3D8647",
"O+	c #3A8044",
"P+	c #397B41",
"Q+	c #245229",
"R+	c #34713C",
"S+	c #36763E",
"T+	c #606A8E",
"U+	c #5F698D",
"V+	c #214D27",
"W+	c #34723C",
"X+	c #37763F",
"Y+	c #35743D",
"Z+	c #687094",
"`+	c #6D779B",
" @	c #667094",
".@	c #34713B",
"+@	c #7983A6",
"@@	c #6F799C",
"#@	c #697396",
"$@	c #6C769A",
"%@	c #173A1C",
"&@	c #697195",
"*@	c #6A7296",
"=@	c #676F93",
"-@	c #7782A2",
";@	c #747F9F",
">@	c #727D9D",
",@	c #737DA0",
"'@	c #2C6233",
")@	c #2E6635",
"!@	c #6D7896",
"~@	c #717C9A",
"{@	c #727D9B",
"]@	c #6D7898",
"^@	c #636D90",
"/@	c #576185",
"(@	c #4D577B",
"_@	c #475175",
":@	c #183B1C",
"<@	c #6B7397",
"[@	c #636E8A",
"}@	c #68738F",
"|@	c #677290",
"1@	c #5B6684",
"2@	c #4E5979",
"3@	c #4B5578",
"4@	c #505A7E",
"5@	c #545E82",
"6@	c #5B6781",
"7@	c #616D87",
"8@	c #5E6985",
"9@	c #4F5A78",
"0@	c #455070",
"a@	c #485373",
"b@	c #545E81",
"c@	c #5C6689",
"d@	c #5B6588",
"e@	c #586285",
"f@	c #545F7F",
"g@	c #586381",
"h@	c #5D6884",
"i@	c #6C7498",
"j@	c #6D7599",
"k@	c #57617A",
"l@	c #5E6881",
"m@	c #5C6681",
"n@	c #505976",
"o@	c #485170",
"p@	c #4C5576",
"q@	c #545C80",
"r@	c #5A6487",
"s@	c #596386",
"t@	c #5C6787",
"u@	c #616C8A",
"v@	c #646F8D",
"w@	c #65708E",
"x@	c #687095",
"y@	c #6F779B",
"z@	c #70789C",
"A@	c #6C7499",
"  . + @ # $ % & * = - ; > , ' ) ! ~ { ] ^ ^ / / ( _ : < [ } } | ",
"1 2 3 @ 4 5 & & 6 7 8 9 0 a ^ ! b c d d e f g g ( _ h i j k k l ",
"m m n o p q r s t u v w x 8 d d y z z z z A B b g C f D E F F E ",
"G H I J K L M N O P Q R S S T U V W z X z T Y d c A Z > `  ...+.",
"@.#.$.%.&.*.=.&.-.;.>.,.'.).!.~.R {.W ].!.^.~./.(.V A e ~ ~ _.~ ",
":.<.[.}.|.1.2.3.4.5.6.>.{.7.8.9.].0.].{.8.a.b.Q Q R c.z T Y A c.",
"d.e.f.g.h.i.j.k.l.m.n.n.n.n.n.n.n.n.n.n.n.n.o.p.b.{.).).R ~.(.!.",
"q.q.r.s.t.u.v.h.w.l.x.y.z.A.A.A.A.A.A.z.y.x.B.C.8.].D.E.Q F.G.H.",
"I.J.K.L.M.N.n.n.n.O.P.Q.R.S.S.S.S.S.S.R.Q.P.O.n.n.n.8.b.7.].R T.",
"U.V.W.J.X.Y.x.Z.`. +.+++@+#+#+#+#+#+#+@+++.+ +`.Z.x.7.b.a.9.W ~.",
"$+%+&+*+n.=+-+;+>+.+++@+,+'+'+'+'+'+'+,+@+++.+>+;+-+=+n.^.W !.)+",
"!+~+!+{+x. +.+]+]+^+/+#+#+#+#+#+#+#+#+#+#+@+++(+_+.+ +x.^.~.Q :+",
"<+[+n.x.-+.+++}+/+@+|+#+#+#+#+#+#+#+#+#+#+|+@+/+}+++.+-+x.n.1+U ",
"2+3+O. +.+++@+4+5+6+6+7+8+#+#+#+#+#+#+#+#+#+#+#+#+@+++.+ +O.1+(.",
"n.x.P..+++@+,+7+9+0+0+a+5+#+#+#+#+#+#+#+#+#+#+#+#+,+@+++.+P.x.n.",
"n.y.b+++@+4+7+c+d+e+f+a+5+#+#+#+#+#+#+#+#+#+'+'+'+'+#+@+++b+y.n.",
"n.z.R.@+,+5+a+f+e+d+c+7+4+#+#+#+#+#+#+#+#+#+#+#+#+#+#+,+@+R.z.n.",
"n.A.S.#+'+7+a+g+h+i+j+@+@+k+k+@+@+@+@+@+@+l+m+S.S.++@+'+#+S.A.n.",
"n.A.S.#+'+8+7+n+o+p+q+++r+r+r+r+r+r+r+s+r+t+u+v+w+x+++'+'+S.A.n.",
"n.A.S.,+y+@+@+z+^+A+A+B+C+D+D+C+B+A+A+E+A+D+F+n.n.z.G+y+#+S.A.n.",
"n.A.S.H+I+r+^+J+A+A+A+K+L+F+F+L+K+A+A+A+A+D+F+n.n.M+.+I+N+S.A.n.",
"n.z.R.O+P+A+A+A+A+E+A+D+F+n.n.F+D+A+E+A+A+C+Q+F+F+Q+C+P+z+R.z.n.",
"n.y.b+_+A+A+A+A+A+E+A+D+F+n.n.F+D+A+E+A+A+B+C+D+D+C+B+A+_+b+y.n.",
"n.O.P.b+R+S+S+S+A+A+A+C+Q+F+F+Q+C+A+A+A+A+A+A+A+S+S+S+R+b+P.O.n.",
"T+U+O.V+Q.W+W+B+S+A+A+B+C+D+D+C+B+A+A+A+A+A+A+X+Y+B+W+Q.V+O.Z+!.",
"`+ @n.=+-+;+>+b+.@X+A+E+E+E+E+E+E+E+E+E+E+A+X+.@b+>+;+-+=+n.Z+8.",
"+@@@#@$@O.`.%@V+b+B+S+A+A+E+E+A+A+A+A+A+A+S+B+b+V+%@`.O.&@*@=@8.",
"-@;@>@,@n.n.n.=+P.'@)@D+D+D+D+D+D+D+D+D+D+)@'@P.=+n.n.n.=@&@p.a.",
"!@~@{@]@^@/@(@_@O.:@F+y.y.y.y.y.y.y.y.y.y.F+:@O.<@Z+b.b.=@Z+=@b.",
"[@}@|@1@2@3@4@5@n.n.n.n.n.n.n.n.n.n.n.n.n.n.n.n.<@*@Z+&@*@*@&@=@",
"6@7@8@9@0@a@b@c@d@e@b@f@g@h@8@h@o.7.a.8.8.7.=@Z+i@i@i@j@j@i@*@&@",
"k@l@m@n@o@p@q@e@e@r@r@s@t@u@v@w@Z+x@x@&@&@&@&@&@i@j@y@z@z@G.A@T."};
