/* XPM */
static char * 05_xpm[] = {
"32 32 92 2",
"  	c None",
". 	c #000000",
"+ 	c #15361A",
"@ 	c #193E1E",
"# 	c #1C4521",
"$ 	c #1D4823",
"% 	c #15371A",
"& 	c #26572C",
"* 	c #2E6735",
"= 	c #33723B",
"- 	c #35773E",
"; 	c #16381B",
"> 	c #17391B",
", 	c #224F28",
"' 	c #306B38",
") 	c #387C41",
"! 	c #3C8546",
"~ 	c #3E8948",
"{ 	c #16371A",
"] 	c #26562C",
"^ 	c #2B6032",
"/ 	c #2B6132",
"( 	c #3E8848",
"_ 	c #3E8A48",
": 	c #36773E",
"< 	c #387B41",
"[ 	c #3C8445",
"} 	c #36783F",
"| 	c #36773F",
"1 	c #3C8345",
"2 	c #3D8847",
"3 	c #418C4B",
"4 	c #479351",
"5 	c #4A9754",
"6 	c #479451",
"7 	c #418D4B",
"8 	c #54A45F",
"9 	c #5BAD65",
"0 	c #54A45E",
"a 	c #2E6736",
"b 	c #51A15C",
"c 	c #5DB068",
"d 	c #61B56B",
"e 	c #5DB067",
"f 	c #5AAC65",
"g 	c #5AAB64",
"h 	c #53A15D",
"i 	c #458F4F",
"j 	c #3D8546",
"k 	c #3A8144",
"l 	c #377B40",
"m 	c #499453",
"n 	c #478F50",
"o 	c #42874B",
"p 	c #3C8045",
"q 	c #397C41",
"r 	c #397C42",
"s 	c #33713B",
"t 	c #27592D",
"u 	c #1D4722",
"v 	c #1D4723",
"w 	c #295F30",
"x 	c #3D8747",
"y 	c #3B8144",
"z 	c #37773F",
"A 	c #35733D",
"B 	c #316C38",
"C 	c #2F6736",
"D 	c #37783F",
"E 	c #193D1D",
"F 	c #33733C",
"G 	c #3D8646",
"H 	c #3B8044",
"I 	c #387A40",
"J 	c #316B38",
"K 	c #235129",
"L 	c #1A3F1F",
"M 	c #3D8647",
"N 	c #3A8044",
"O 	c #397B41",
"P 	c #245229",
"Q 	c #34713C",
"R 	c #36763E",
"S 	c #214D27",
"T 	c #34723C",
"U 	c #37763F",
"V 	c #35743D",
"W 	c #34713B",
"X 	c #173A1C",
"Y 	c #2C6233",
"Z 	c #2E6635",
"` 	c #183B1C",
"                                                                ",
"                                                                ",
"                                                                ",
"                                                                ",
"                                                                ",
"                                                                ",
"                    . . . . . . . . . . . .                     ",
"                    + @ # $ $ $ $ $ $ # @ +                     ",
"            . . . % & * = - - - - - - = * & % . . .             ",
"            + ; > , ' ) ! ~ ~ ~ ~ ~ ~ ! ) ' , > ; +             ",
"        . { ] ^ / ' ) ! ( _ _ _ _ _ _ ( ! ) ' / ^ ] { .         ",
"        + , ' : : < [ ~ ~ ~ ~ ~ ~ ~ ~ ~ ~ ! ) } | ' , +         ",
"    . + ] ' ) 1 [ ! 2 ~ ~ ~ ~ ~ ~ ~ ~ ~ ~ 2 ! [ 1 ) ' ] + .     ",
"    % , ' ) ! 3 4 5 5 6 7 ~ ~ ~ ~ ~ ~ ~ ~ ~ ~ ~ ~ ! ) ' , %     ",
". + & ' ) ! ( 6 8 9 9 0 4 ~ ~ ~ ~ ~ ~ ~ ~ ~ ~ ~ ~ ( ! ) ' & + . ",
". @ a ) ! 3 6 b c d e 0 4 ~ ~ ~ ~ ~ ~ ~ ~ ~ _ _ _ _ ~ ! ) a @ . ",
". # = ! ( 4 0 e d c b 6 3 ~ ~ ~ ~ ~ ~ ~ ~ ~ ~ ~ ~ ~ ~ ( ! = # . ",
". $ - ~ _ 6 0 f g h i ! ! j j ! ! ! ! ! ! k l - - ) ! _ ~ - $ . ",
". $ - ~ _ 7 6 m n o p ) q q q q q q q r q s t u v w ) _ _ - $ . ",
". $ - ( x ! ! y < z z A B C C B A z z D z C E . . # F x ~ - $ . ",
". $ - G H q < I z z z J K E E K J z z z z C E . . L ' H M - $ . ",
". # = N O z z z z D z C E . . E C z D z z B P E E P B O y = # . ",
". @ a | z z z z z D z C E . . E C z D z z A B C C B A z | a @ . ",
". % & a Q R R R z z z B P E E P B z z z z z z z R R R Q a & % . ",
"    % S * T T A R z z A B C C B A z z z z z z U V A T * S %     ",
"    . { ] ^ / a W U z D D D D D D D D D D z U W a / ^ ] { .     ",
"        % > X S a A R z z D D z z z z z z R A a S X > %         ",
"        . . . { & Y Z C C C C C C C C C C Z Y & { . . .         ",
"                % ` E @ @ @ @ @ @ @ @ @ @ E ` %                 ",
"                . . . . . . . . . . . . . . . .                 ",
"                                                                ",
"                                                                "};
